<svg width="712" height="426" viewBox="0 0 712 426" fill="none" xmlns="http://www.w3.org/2000/svg">
<path d="M17.4327 59.9361C14.6607 59.9361 12.1767 59.4861 9.98065 58.5861C7.78465 57.6861 6.02065 56.3541 4.68865 54.5901C3.39265 52.8261 2.70865 50.7021 2.63665 48.2181H12.4647C12.6087 49.6221 13.0947 50.7021 13.9227 51.4581C14.7507 52.1781 15.8307 52.5381 17.1627 52.5381C18.5307 52.5381 19.6107 52.2321 20.4027 51.6201C21.1947 50.9721 21.5907 50.0901 21.5907 48.9741C21.5907 48.0381 21.2667 47.2641 20.6187 46.6521C20.0067 46.0401 19.2327 45.5361 18.2967 45.1401C17.3967 44.7441 16.1007 44.2941 14.4087 43.7901C11.9607 43.0341 9.96265 42.2781 8.41465 41.5221C6.86665 40.7661 5.53465 39.6501 4.41865 38.1741C3.30265 36.6981 2.74465 34.7721 2.74465 32.3961C2.74465 28.8681 4.02265 26.1141 6.57865 24.1341C9.13465 22.1181 12.4647 21.1101 16.5687 21.1101C20.7447 21.1101 24.1107 22.1181 26.6667 24.1341C29.2227 26.1141 30.5907 28.8861 30.7707 32.4501H20.7807C20.7087 31.2261 20.2587 30.2721 19.4307 29.5881C18.6027 28.8681 17.5407 28.5081 16.2447 28.5081C15.1287 28.5081 14.2287 28.8141 13.5447 29.4261C12.8607 30.0021 12.5187 30.8481 12.5187 31.9641C12.5187 33.1881 13.0947 34.1421 14.2467 34.8261C15.3987 35.5101 17.1987 36.2481 19.6467 37.0401C22.0947 37.8681 24.0747 38.6601 25.5867 39.4161C27.1347 40.1721 28.4667 41.2701 29.5827 42.7101C30.6987 44.1501 31.2567 46.0041 31.2567 48.2721C31.2567 50.4321 30.6987 52.3941 29.5827 54.1581C28.5027 55.9221 26.9187 57.3261 24.8307 58.3701C22.7427 59.4141 20.2767 59.9361 17.4327 59.9361ZM53.7333 51.7281V59.5581H49.0353C45.6873 59.5581 43.0773 58.7481 41.2053 57.1281C39.3333 55.4721 38.3973 52.7901 38.3973 49.0821V37.0941H34.7253V29.4261H38.3973V22.0821H47.6313V29.4261H53.6793V37.0941H47.6313V49.1901C47.6313 50.0901 47.8473 50.7381 48.2793 51.1341C48.7113 51.5301 49.4313 51.7281 50.4393 51.7281H53.7333ZM88.6308 29.4261V59.5581H79.3968V55.4541C78.4608 56.7861 77.1828 57.8661 75.5628 58.6941C73.9788 59.4861 72.2148 59.8821 70.2708 59.8821C67.9668 59.8821 65.9328 59.3781 64.1688 58.3701C62.4048 57.3261 61.0368 55.8321 60.0648 53.8881C59.0928 51.9441 58.6068 49.6581 58.6068 47.0301V29.4261H67.7868V45.7881C67.7868 47.8041 68.3088 49.3701 69.3528 50.4861C70.3968 51.6021 71.8008 52.1601 73.5648 52.1601C75.3648 52.1601 76.7868 51.6021 77.8308 50.4861C78.8748 49.3701 79.3968 47.8041 79.3968 45.7881V29.4261H88.6308ZM93.4275 44.4381C93.4275 41.3421 94.0035 38.6241 95.1555 36.2841C96.3435 33.9441 97.9455 32.1441 99.9615 30.8841C101.978 29.6241 104.228 28.9941 106.712 28.9941C108.692 28.9941 110.492 29.4081 112.112 30.2361C113.768 31.0641 115.064 32.1801 116 33.5841V19.5981H125.234V59.5581H116V55.2381C115.136 56.6781 113.894 57.8301 112.274 58.6941C110.69 59.5581 108.836 59.9901 106.712 59.9901C104.228 59.9901 101.978 59.3601 99.9615 58.1001C97.9455 56.8041 96.3435 54.9861 95.1555 52.6461C94.0035 50.2701 93.4275 47.5341 93.4275 44.4381ZM116 44.4921C116 42.1881 115.352 40.3701 114.056 39.0381C112.796 37.7061 111.248 37.0401 109.412 37.0401C107.576 37.0401 106.01 37.7061 104.714 39.0381C103.454 40.3341 102.824 42.1341 102.824 44.4381C102.824 46.7421 103.454 48.5781 104.714 49.9461C106.01 51.2781 107.576 51.9441 109.412 51.9441C111.248 51.9441 112.796 51.2781 114.056 49.9461C115.352 48.6141 116 46.7961 116 44.4921ZM162.694 29.4261L143.794 73.8681H133.858L140.77 58.5321L128.512 29.4261H138.826L145.792 48.2721L152.704 29.4261H162.694ZM170.677 26.2941C169.057 26.2941 167.725 25.8261 166.681 24.8901C165.673 23.9181 165.169 22.7301 165.169 21.3261C165.169 19.8861 165.673 18.6981 166.681 17.7621C167.725 16.7901 169.057 16.3041 170.677 16.3041C172.261 16.3041 173.557 16.7901 174.565 17.7621C175.609 18.6981 176.131 19.8861 176.131 21.3261C176.131 22.7301 175.609 23.9181 174.565 24.8901C173.557 25.8261 172.261 26.2941 170.677 26.2941ZM175.267 29.4261V59.5581H166.033V29.4261H175.267ZM200.319 29.1021C203.847 29.1021 206.655 30.2541 208.743 32.5581C210.867 34.8261 211.929 37.9581 211.929 41.9541V59.5581H202.749V43.1961C202.749 41.1801 202.227 39.6141 201.183 38.4981C200.139 37.3821 198.735 36.8241 196.971 36.8241C195.207 36.8241 193.803 37.3821 192.759 38.4981C191.715 39.6141 191.193 41.1801 191.193 43.1961V59.5581H181.959V29.4261H191.193V33.4221C192.129 32.0901 193.389 31.0461 194.973 30.2901C196.557 29.4981 198.339 29.1021 200.319 29.1021ZM229.794 28.9941C231.918 28.9941 233.772 29.4261 235.356 30.2901C236.976 31.1541 238.218 32.2881 239.082 33.6921V29.4261H248.316V59.5041C248.316 62.2761 247.758 64.7781 246.642 67.0101C245.562 69.2781 243.888 71.0781 241.62 72.4101C239.388 73.7421 236.598 74.4081 233.25 74.4081C228.786 74.4081 225.168 73.3461 222.396 71.2221C219.624 69.1341 218.04 66.2901 217.644 62.6901H226.77C227.058 63.8421 227.742 64.7421 228.822 65.3901C229.902 66.0741 231.234 66.4161 232.818 66.4161C234.726 66.4161 236.238 65.8581 237.354 64.7421C238.506 63.6621 239.082 61.9161 239.082 59.5041V55.2381C238.182 56.6421 236.94 57.7941 235.356 58.6941C233.772 59.5581 231.918 59.9901 229.794 59.9901C227.31 59.9901 225.06 59.3601 223.044 58.1001C221.028 56.8041 219.426 54.9861 218.238 52.6461C217.086 50.2701 216.51 47.5341 216.51 44.4381C216.51 41.3421 217.086 38.6241 218.238 36.2841C219.426 33.9441 221.028 32.1441 223.044 30.8841C225.06 29.6241 227.31 28.9941 229.794 28.9941ZM239.082 44.4921C239.082 42.1881 238.434 40.3701 237.138 39.0381C235.878 37.7061 234.33 37.0401 232.494 37.0401C230.658 37.0401 229.092 37.7061 227.796 39.0381C226.536 40.3341 225.906 42.1341 225.906 44.4381C225.906 46.7421 226.536 48.5781 227.796 49.9461C229.092 51.2781 230.658 51.9441 232.494 51.9441C234.33 51.9441 235.878 51.2781 237.138 49.9461C238.434 48.6141 239.082 46.7961 239.082 44.4921Z" fill="#F48C06"/>
<path d="M284.367 59.9361C280.803 59.9361 277.527 59.1081 274.539 57.4521C271.587 55.7961 269.229 53.4921 267.465 50.5401C265.737 47.5521 264.873 44.2041 264.873 40.4961C264.873 36.7881 265.737 33.4581 267.465 30.5061C269.229 27.5541 271.587 25.2501 274.539 23.5941C277.527 21.9381 280.803 21.1101 284.367 21.1101C287.931 21.1101 291.189 21.9381 294.141 23.5941C297.129 25.2501 299.469 27.5541 301.161 30.5061C302.889 33.4581 303.753 36.7881 303.753 40.4961C303.753 44.2041 302.889 47.5521 301.161 50.5401C299.433 53.4921 297.093 55.7961 294.141 57.4521C291.189 59.1081 287.931 59.9361 284.367 59.9361ZM284.367 51.5121C287.391 51.5121 289.803 50.5041 291.603 48.4881C293.439 46.4721 294.357 43.8081 294.357 40.4961C294.357 37.1481 293.439 34.4841 291.603 32.5041C289.803 30.4881 287.391 29.4801 284.367 29.4801C281.307 29.4801 278.859 30.4701 277.023 32.4501C275.223 34.4301 274.323 37.1121 274.323 40.4961C274.323 43.8441 275.223 46.5261 277.023 48.5421C278.859 50.5221 281.307 51.5121 284.367 51.5121ZM327.25 29.1021C330.778 29.1021 333.586 30.2541 335.674 32.5581C337.798 34.8261 338.86 37.9581 338.86 41.9541V59.5581H329.68V43.1961C329.68 41.1801 329.158 39.6141 328.114 38.4981C327.07 37.3821 325.666 36.8241 323.902 36.8241C322.138 36.8241 320.734 37.3821 319.69 38.4981C318.646 39.6141 318.124 41.1801 318.124 43.1961V59.5581H308.89V29.4261H318.124V33.4221C319.06 32.0901 320.32 31.0461 321.904 30.2901C323.488 29.4981 325.27 29.1021 327.25 29.1021ZM354.511 19.5981V59.5581H345.277V19.5981H354.511ZM365.847 26.2941C364.227 26.2941 362.895 25.8261 361.851 24.8901C360.843 23.9181 360.339 22.7301 360.339 21.3261C360.339 19.8861 360.843 18.6981 361.851 17.7621C362.895 16.7901 364.227 16.3041 365.847 16.3041C367.431 16.3041 368.727 16.7901 369.735 17.7621C370.779 18.6981 371.301 19.8861 371.301 21.3261C371.301 22.7301 370.779 23.9181 369.735 24.8901C368.727 25.8261 367.431 26.2941 365.847 26.2941ZM370.437 29.4261V59.5581H361.203V29.4261H370.437ZM395.489 29.1021C399.017 29.1021 401.825 30.2541 403.913 32.5581C406.037 34.8261 407.099 37.9581 407.099 41.9541V59.5581H397.919V43.1961C397.919 41.1801 397.397 39.6141 396.353 38.4981C395.309 37.3821 393.905 36.8241 392.141 36.8241C390.377 36.8241 388.973 37.3821 387.929 38.4981C386.885 39.6141 386.363 41.1801 386.363 43.1961V59.5581H377.129V29.4261H386.363V33.4221C387.299 32.0901 388.559 31.0461 390.143 30.2901C391.727 29.4981 393.509 29.1021 395.489 29.1021ZM441.919 44.0061C441.919 44.8701 441.865 45.7701 441.757 46.7061H420.859C421.003 48.5781 421.597 50.0181 422.641 51.0261C423.721 51.9981 425.035 52.4841 426.583 52.4841C428.887 52.4841 430.489 51.5121 431.389 49.5681H441.217C440.713 51.5481 439.795 53.3301 438.463 54.9141C437.167 56.4981 435.529 57.7401 433.549 58.6401C431.569 59.5401 429.355 59.9901 426.907 59.9901C423.955 59.9901 421.327 59.3601 419.023 58.1001C416.719 56.8401 414.919 55.0401 413.623 52.7001C412.327 50.3601 411.679 47.6241 411.679 44.4921C411.679 41.3601 412.309 38.6241 413.569 36.2841C414.865 33.9441 416.665 32.1441 418.969 30.8841C421.273 29.6241 423.919 28.9941 426.907 28.9941C429.823 28.9941 432.415 29.6061 434.683 30.8301C436.951 32.0541 438.715 33.8001 439.975 36.0681C441.271 38.3361 441.919 40.9821 441.919 44.0061ZM432.469 41.5761C432.469 39.9921 431.929 38.7321 430.849 37.7961C429.769 36.8601 428.419 36.3921 426.799 36.3921C425.251 36.3921 423.937 36.8421 422.857 37.7421C421.813 38.6421 421.165 39.9201 420.913 41.5761H432.469ZM462.878 26.2941C461.258 26.2941 459.926 25.8261 458.882 24.8901C457.874 23.9181 457.37 22.7301 457.37 21.3261C457.37 19.8861 457.874 18.6981 458.882 17.7621C459.926 16.7901 461.258 16.3041 462.878 16.3041C464.462 16.3041 465.758 16.7901 466.766 17.7621C467.81 18.6981 468.332 19.8861 468.332 21.3261C468.332 22.7301 467.81 23.9181 466.766 24.8901C465.758 25.8261 464.462 26.2941 462.878 26.2941ZM467.468 29.4261V59.5581H458.234V29.4261H467.468ZM486.418 59.9901C483.79 59.9901 481.45 59.5401 479.398 58.6401C477.346 57.7401 475.726 56.5161 474.538 54.9681C473.35 53.3841 472.684 51.6201 472.54 49.6761H481.666C481.774 50.7201 482.26 51.5661 483.124 52.2141C483.988 52.8621 485.05 53.1861 486.31 53.1861C487.462 53.1861 488.344 52.9701 488.956 52.5381C489.604 52.0701 489.928 51.4761 489.928 50.7561C489.928 49.8921 489.478 49.2621 488.578 48.8661C487.678 48.4341 486.22 47.9661 484.204 47.4621C482.044 46.9581 480.244 46.4361 478.804 45.8961C477.364 45.3201 476.122 44.4381 475.078 43.2501C474.034 42.0261 473.512 40.3881 473.512 38.3361C473.512 36.6081 473.98 35.0421 474.916 33.6381C475.888 32.1981 477.292 31.0641 479.128 30.2361C481 29.4081 483.214 28.9941 485.77 28.9941C489.55 28.9941 492.52 29.9301 494.68 31.8021C496.876 33.6741 498.136 36.1581 498.46 39.2541H489.928C489.784 38.2101 489.316 37.3821 488.524 36.7701C487.768 36.1581 486.76 35.8521 485.5 35.8521C484.42 35.8521 483.592 36.0681 483.016 36.5001C482.44 36.8961 482.152 37.4541 482.152 38.1741C482.152 39.0381 482.602 39.6861 483.502 40.1181C484.438 40.5501 485.878 40.9821 487.822 41.4141C490.054 41.9901 491.872 42.5661 493.276 43.1421C494.68 43.6821 495.904 44.5821 496.948 45.8421C498.028 47.0661 498.586 48.7221 498.622 50.8101C498.622 52.5741 498.118 54.1581 497.11 55.5621C496.138 56.9301 494.716 58.0101 492.844 58.8021C491.008 59.5941 488.866 59.9901 486.418 59.9901ZM534.075 29.1021C537.603 29.1021 540.411 30.2541 542.499 32.5581C544.623 34.8261 545.685 37.9581 545.685 41.9541V59.5581H536.505V43.1961C536.505 41.1801 535.983 39.6141 534.939 38.4981C533.895 37.3821 532.491 36.8241 530.727 36.8241C528.963 36.8241 527.559 37.3821 526.515 38.4981C525.471 39.6141 524.949 41.1801 524.949 43.1961V59.5581H515.715V29.4261H524.949V33.4221C525.885 32.0901 527.145 31.0461 528.729 30.2901C530.313 29.4981 532.095 29.1021 534.075 29.1021ZM565.817 59.9901C562.865 59.9901 560.201 59.3601 557.825 58.1001C555.485 56.8401 553.631 55.0401 552.263 52.7001C550.931 50.3601 550.265 47.6241 550.265 44.4921C550.265 41.3961 550.949 38.6781 552.317 36.3381C553.685 33.9621 555.557 32.1441 557.933 30.8841C560.309 29.6241 562.973 28.9941 565.925 28.9941C568.877 28.9941 571.541 29.6241 573.917 30.8841C576.293 32.1441 578.165 33.9621 579.533 36.3381C580.901 38.6781 581.585 41.3961 581.585 44.4921C581.585 47.5881 580.883 50.3241 579.479 52.7001C578.111 55.0401 576.221 56.8401 573.809 58.1001C571.433 59.3601 568.769 59.9901 565.817 59.9901ZM565.817 51.9981C567.581 51.9981 569.075 51.3501 570.299 50.0541C571.559 48.7581 572.189 46.9041 572.189 44.4921C572.189 42.0801 571.577 40.2261 570.353 38.9301C569.165 37.6341 567.689 36.9861 565.925 36.9861C564.125 36.9861 562.631 37.6341 561.443 38.9301C560.255 40.1901 559.661 42.0441 559.661 44.4921C559.661 46.9041 560.237 48.7581 561.389 50.0541C562.577 51.3501 564.053 51.9981 565.817 51.9981ZM629.738 29.4261L621.584 59.5581H611.378L606.626 40.0101L601.712 59.5581H591.56L583.352 29.4261H592.586L596.852 50.9721L601.928 29.4261H611.702L616.832 50.8641L621.044 29.4261H629.738ZM42.1647 110.102C45.9087 110.102 48.8787 111.236 51.0747 113.504C53.3067 115.772 54.4227 118.922 54.4227 122.954V140.558H45.2427V124.196C45.2427 122.252 44.7207 120.758 43.6767 119.714C42.6687 118.634 41.2647 118.094 39.4647 118.094C37.6647 118.094 36.2427 118.634 35.1987 119.714C34.1907 120.758 33.6867 122.252 33.6867 124.196V140.558H24.5067V124.196C24.5067 122.252 23.9847 120.758 22.9407 119.714C21.9327 118.634 20.5287 118.094 18.7287 118.094C16.9287 118.094 15.5067 118.634 14.4627 119.714C13.4547 120.758 12.9507 122.252 12.9507 124.196V140.558H3.71665V110.426H12.9507V114.206C13.8867 112.946 15.1107 111.956 16.6227 111.236C18.1347 110.48 19.8447 110.102 21.7527 110.102C24.0207 110.102 26.0367 110.588 27.8007 111.56C29.6007 112.532 31.0047 113.918 32.0127 115.718C33.0567 114.062 34.4787 112.712 36.2787 111.668C38.0787 110.624 40.0407 110.102 42.1647 110.102ZM90.6347 110.426V140.558H81.4007V136.454C80.4647 137.786 79.1867 138.866 77.5667 139.694C75.9827 140.486 74.2187 140.882 72.2747 140.882C69.9707 140.882 67.9367 140.378 66.1727 139.37C64.4087 138.326 63.0407 136.832 62.0687 134.888C61.0967 132.944 60.6107 130.658 60.6107 128.03V110.426H69.7907V126.788C69.7907 128.804 70.3127 130.37 71.3567 131.486C72.4007 132.602 73.8047 133.16 75.5687 133.16C77.3687 133.16 78.7907 132.602 79.8347 131.486C80.8787 130.37 81.4007 128.804 81.4007 126.788V110.426H90.6347ZM95.4314 125.492C95.4314 122.36 96.0614 119.624 97.3214 117.284C98.6174 114.944 100.399 113.144 102.667 111.884C104.971 110.624 107.599 109.994 110.551 109.994C114.331 109.994 117.481 110.984 120.001 112.964C122.557 114.944 124.231 117.734 125.023 121.334H115.195C114.367 119.03 112.765 117.878 110.389 117.878C108.697 117.878 107.347 118.544 106.339 119.876C105.331 121.172 104.827 123.044 104.827 125.492C104.827 127.94 105.331 129.83 106.339 131.162C107.347 132.458 108.697 133.106 110.389 133.106C112.765 133.106 114.367 131.954 115.195 129.65H125.023C124.231 133.178 122.557 135.95 120.001 137.966C117.445 139.982 114.295 140.99 110.551 140.99C107.599 140.99 104.971 140.36 102.667 139.1C100.399 137.84 98.6174 136.04 97.3214 133.7C96.0614 131.36 95.4314 128.624 95.4314 125.492ZM148.485 110.102C151.941 110.102 154.713 111.254 156.801 113.558C158.889 115.826 159.933 118.958 159.933 122.954V140.558H150.753V124.196C150.753 122.18 150.231 120.614 149.187 119.498C148.143 118.382 146.739 117.824 144.975 117.824C143.211 117.824 141.807 118.382 140.763 119.498C139.719 120.614 139.197 122.18 139.197 124.196V140.558H129.963V100.598H139.197V114.476C140.133 113.144 141.411 112.082 143.031 111.29C144.651 110.498 146.469 110.102 148.485 110.102ZM206.197 125.006C206.197 125.87 206.143 126.77 206.035 127.706H185.137C185.281 129.578 185.875 131.018 186.919 132.026C187.999 132.998 189.313 133.484 190.861 133.484C193.165 133.484 194.767 132.512 195.667 130.568H205.495C204.991 132.548 204.073 134.33 202.741 135.914C201.445 137.498 199.807 138.74 197.827 139.64C195.847 140.54 193.633 140.99 191.185 140.99C188.233 140.99 185.605 140.36 183.301 139.1C180.997 137.84 179.197 136.04 177.901 133.7C176.605 131.36 175.957 128.624 175.957 125.492C175.957 122.36 176.587 119.624 177.847 117.284C179.143 114.944 180.943 113.144 183.247 111.884C185.551 110.624 188.197 109.994 191.185 109.994C194.101 109.994 196.693 110.606 198.961 111.83C201.229 113.054 202.993 114.8 204.253 117.068C205.549 119.336 206.197 121.982 206.197 125.006ZM196.747 122.576C196.747 120.992 196.207 119.732 195.127 118.796C194.047 117.86 192.697 117.392 191.077 117.392C189.529 117.392 188.215 117.842 187.135 118.742C186.091 119.642 185.443 120.92 185.191 122.576H196.747ZM209.232 125.438C209.232 122.342 209.808 119.624 210.96 117.284C212.148 114.944 213.75 113.144 215.766 111.884C217.782 110.624 220.032 109.994 222.516 109.994C224.64 109.994 226.494 110.426 228.078 111.29C229.698 112.154 230.94 113.288 231.804 114.692V110.426H241.038V140.558H231.804V136.292C230.904 137.696 229.644 138.83 228.024 139.694C226.44 140.558 224.586 140.99 222.462 140.99C220.014 140.99 217.782 140.36 215.766 139.1C213.75 137.804 212.148 135.986 210.96 133.646C209.808 131.27 209.232 128.534 209.232 125.438ZM231.804 125.492C231.804 123.188 231.156 121.37 229.86 120.038C228.6 118.706 227.052 118.04 225.216 118.04C223.38 118.04 221.814 118.706 220.518 120.038C219.258 121.334 218.628 123.134 218.628 125.438C218.628 127.742 219.258 129.578 220.518 130.946C221.814 132.278 223.38 132.944 225.216 132.944C227.052 132.944 228.6 132.278 229.86 130.946C231.156 129.614 231.804 127.796 231.804 125.492ZM259.977 140.99C257.349 140.99 255.009 140.54 252.957 139.64C250.905 138.74 249.285 137.516 248.097 135.968C246.909 134.384 246.243 132.62 246.099 130.676H255.225C255.333 131.72 255.819 132.566 256.683 133.214C257.547 133.862 258.609 134.186 259.869 134.186C261.021 134.186 261.903 133.97 262.515 133.538C263.163 133.07 263.487 132.476 263.487 131.756C263.487 130.892 263.037 130.262 262.137 129.866C261.237 129.434 259.779 128.966 257.763 128.462C255.603 127.958 253.803 127.436 252.363 126.896C250.923 126.32 249.681 125.438 248.637 124.25C247.593 123.026 247.071 121.388 247.071 119.336C247.071 117.608 247.539 116.042 248.475 114.638C249.447 113.198 250.851 112.064 252.687 111.236C254.559 110.408 256.773 109.994 259.329 109.994C263.109 109.994 266.079 110.93 268.239 112.802C270.435 114.674 271.695 117.158 272.019 120.254H263.487C263.343 119.21 262.875 118.382 262.083 117.77C261.327 117.158 260.319 116.852 259.059 116.852C257.979 116.852 257.151 117.068 256.575 117.5C255.999 117.896 255.711 118.454 255.711 119.174C255.711 120.038 256.161 120.686 257.061 121.118C257.997 121.55 259.437 121.982 261.381 122.414C263.613 122.99 265.431 123.566 266.835 124.142C268.239 124.682 269.463 125.582 270.507 126.842C271.587 128.066 272.145 129.722 272.181 131.81C272.181 133.574 271.677 135.158 270.669 136.562C269.697 137.93 268.275 139.01 266.403 139.802C264.567 140.594 262.425 140.99 259.977 140.99ZM282.474 107.294C280.854 107.294 279.522 106.826 278.478 105.89C277.47 104.918 276.966 103.73 276.966 102.326C276.966 100.886 277.47 99.6981 278.478 98.7621C279.522 97.7901 280.854 97.3041 282.474 97.3041C284.058 97.3041 285.354 97.7901 286.362 98.7621C287.406 99.6981 287.928 100.886 287.928 102.326C287.928 103.73 287.406 104.918 286.362 105.89C285.354 106.826 284.058 107.294 282.474 107.294ZM287.064 110.426V140.558H277.83V110.426H287.064ZM322.16 125.006C322.16 125.87 322.106 126.77 321.998 127.706H301.1C301.244 129.578 301.838 131.018 302.882 132.026C303.962 132.998 305.276 133.484 306.824 133.484C309.128 133.484 310.73 132.512 311.63 130.568H321.458C320.954 132.548 320.036 134.33 318.704 135.914C317.408 137.498 315.77 138.74 313.79 139.64C311.81 140.54 309.596 140.99 307.148 140.99C304.196 140.99 301.568 140.36 299.264 139.1C296.96 137.84 295.16 136.04 293.864 133.7C292.568 131.36 291.92 128.624 291.92 125.492C291.92 122.36 292.55 119.624 293.81 117.284C295.106 114.944 296.906 113.144 299.21 111.884C301.514 110.624 304.16 109.994 307.148 109.994C310.064 109.994 312.656 110.606 314.924 111.83C317.192 113.054 318.956 114.8 320.216 117.068C321.512 119.336 322.16 121.982 322.16 125.006ZM312.71 122.576C312.71 120.992 312.17 119.732 311.09 118.796C310.01 117.86 308.66 117.392 307.04 117.392C305.492 117.392 304.178 117.842 303.098 118.742C302.054 119.642 301.406 120.92 301.154 122.576H312.71ZM336.265 115.448C337.345 113.792 338.695 112.496 340.315 111.56C341.935 110.588 343.735 110.102 345.715 110.102V119.876H343.177C340.873 119.876 339.145 120.38 337.993 121.388C336.841 122.36 336.265 124.088 336.265 126.572V140.558H327.031V110.426H336.265V115.448Z" fill="white"/>
<path d="M6.60865 195.149V179.933H0.464652V178.229H14.7447V179.933H8.60065V195.149H6.60865ZM22.9435 195.365C21.7755 195.365 20.7115 195.165 19.7515 194.765C18.7915 194.349 17.9755 193.765 17.3035 193.013C16.6315 192.261 16.1115 191.349 15.7435 190.277C15.3915 189.205 15.2155 188.005 15.2155 186.677C15.2155 185.333 15.3915 184.133 15.7435 183.077C16.1115 182.005 16.6315 181.101 17.3035 180.365C17.9755 179.613 18.7835 179.037 19.7275 178.637C20.6875 178.221 21.7595 178.013 22.9435 178.013C24.1435 178.013 25.2155 178.213 26.1595 178.613C27.1195 179.013 27.9355 179.589 28.6075 180.341C29.2955 181.093 29.8155 182.005 30.1675 183.077C30.5355 184.133 30.7195 185.325 30.7195 186.653C30.7195 187.997 30.5355 189.205 30.1675 190.277C29.7995 191.349 29.2795 192.261 28.6075 193.013C27.9355 193.765 27.1195 194.349 26.1595 194.765C25.2155 195.165 24.1435 195.365 22.9435 195.365ZM22.9435 193.613C24.1595 193.613 25.1835 193.341 26.0155 192.797C26.8635 192.253 27.5115 191.461 27.9595 190.421C28.4075 189.381 28.6315 188.133 28.6315 186.677C28.6315 185.205 28.4075 183.957 27.9595 182.933C27.5115 181.909 26.8635 181.125 26.0155 180.581C25.1835 180.037 24.1595 179.765 22.9435 179.765C21.7595 179.765 20.7435 180.037 19.8955 180.581C19.0635 181.125 18.4235 181.917 17.9755 182.957C17.5275 183.981 17.3035 185.221 17.3035 186.677C17.3035 188.133 17.5275 189.381 17.9755 190.421C18.4235 191.445 19.0635 192.237 19.8955 192.797C20.7435 193.341 21.7595 193.613 22.9435 193.613ZM37.3352 195.149V179.933H31.1912V178.229H45.4712V179.933H39.3272V195.149H37.3352ZM53.886 195.365C52.222 195.365 50.798 195.013 49.614 194.309C48.43 193.605 47.518 192.605 46.878 191.309C46.254 190.013 45.942 188.469 45.942 186.677C45.942 184.885 46.254 183.349 46.878 182.069C47.518 180.773 48.43 179.773 49.614 179.069C50.798 178.365 52.222 178.013 53.886 178.013C55.054 178.013 56.134 178.197 57.126 178.565C58.118 178.933 58.95 179.469 59.622 180.173L58.854 181.781C58.118 181.093 57.35 180.597 56.55 180.293C55.766 179.973 54.894 179.813 53.934 179.813C52.03 179.813 50.574 180.413 49.566 181.613C48.558 182.813 48.054 184.501 48.054 186.677C48.054 188.853 48.558 190.549 49.566 191.765C50.574 192.965 52.03 193.565 53.934 193.565C54.894 193.565 55.766 193.413 56.55 193.109C57.35 192.789 58.118 192.285 58.854 191.597L59.622 193.205C58.95 193.893 58.118 194.429 57.126 194.813C56.134 195.181 55.054 195.365 53.886 195.365ZM68.3745 180.581V178.397H70.7745V180.581H68.3745ZM68.6145 195.149V183.485H70.5585V195.149H68.6145ZM78.1287 195.365C77.5207 195.365 76.9287 195.301 76.3527 195.173C75.7927 195.061 75.2647 194.901 74.7687 194.693C74.2887 194.469 73.8727 194.205 73.5207 193.901L74.1447 192.533C74.5287 192.837 74.9447 193.093 75.3927 193.301C75.8407 193.493 76.2967 193.637 76.7607 193.733C77.2247 193.829 77.6967 193.877 78.1767 193.877C79.0887 193.877 79.7767 193.709 80.2407 193.373C80.7047 193.037 80.9367 192.581 80.9367 192.005C80.9367 191.557 80.7847 191.205 80.4807 190.949C80.1767 190.677 79.6967 190.469 79.0407 190.325L76.8567 189.845C75.8487 189.637 75.0967 189.277 74.6007 188.765C74.1207 188.253 73.8807 187.589 73.8807 186.773C73.8807 186.053 74.0647 185.437 74.4327 184.925C74.8167 184.397 75.3527 183.989 76.0407 183.701C76.7287 183.413 77.5287 183.269 78.4407 183.269C78.9847 183.269 79.5047 183.325 80.0007 183.437C80.4967 183.549 80.9607 183.717 81.3927 183.941C81.8407 184.149 82.2247 184.413 82.5447 184.733L81.8967 186.101C81.5927 185.813 81.2487 185.573 80.8647 185.381C80.4807 185.173 80.0807 185.021 79.6647 184.925C79.2647 184.813 78.8567 184.757 78.4407 184.757C77.5447 184.757 76.8647 184.933 76.4007 185.285C75.9367 185.637 75.7047 186.101 75.7047 186.677C75.7047 187.125 75.8487 187.493 76.1367 187.781C76.4247 188.069 76.8727 188.277 77.4807 188.405L79.6647 188.861C80.7047 189.085 81.4807 189.445 81.9927 189.941C82.5207 190.421 82.7847 191.077 82.7847 191.909C82.7847 192.613 82.5927 193.229 82.2087 193.757C81.8247 194.269 81.2807 194.669 80.5767 194.957C79.8887 195.229 79.0727 195.365 78.1287 195.365ZM95.5834 195.365C94.7834 195.365 94.0634 195.213 93.4234 194.909C92.7994 194.589 92.3034 194.157 91.9354 193.613C91.5674 193.069 91.3834 192.461 91.3834 191.789C91.3834 190.925 91.5994 190.245 92.0314 189.749C92.4794 189.253 93.2074 188.901 94.2154 188.693C95.2394 188.485 96.6314 188.381 98.3914 188.381H99.4714V189.653H98.4154C97.4394 189.653 96.6234 189.685 95.9674 189.749C95.3114 189.813 94.7914 189.925 94.4074 190.085C94.0234 190.245 93.7514 190.453 93.5914 190.709C93.4314 190.965 93.3514 191.285 93.3514 191.669C93.3514 192.325 93.5754 192.861 94.0234 193.277C94.4874 193.693 95.1114 193.901 95.8954 193.901C96.5354 193.901 97.0954 193.749 97.5754 193.445C98.0714 193.141 98.4554 192.725 98.7274 192.197C99.0154 191.669 99.1594 191.061 99.1594 190.373V187.637C99.1594 186.645 98.9594 185.933 98.5594 185.501C98.1594 185.053 97.5034 184.829 96.5914 184.829C95.8874 184.829 95.2074 184.933 94.5514 185.141C93.8954 185.333 93.2234 185.653 92.5354 186.101L91.8634 184.685C92.2794 184.397 92.7514 184.149 93.2794 183.941C93.8074 183.717 94.3594 183.549 94.9354 183.437C95.5114 183.325 96.0634 183.269 96.5914 183.269C97.5994 183.269 98.4314 183.437 99.0874 183.773C99.7434 184.093 100.231 184.589 100.551 185.261C100.871 185.917 101.031 186.765 101.031 187.805V195.149H99.2074V192.437H99.4234C99.2954 193.045 99.0474 193.565 98.6794 193.997C98.3274 194.429 97.8874 194.765 97.3594 195.005C96.8314 195.245 96.2394 195.365 95.5834 195.365ZM104.638 195.149V183.485H106.534V186.077H106.27C106.606 185.149 107.15 184.453 107.902 183.989C108.67 183.509 109.55 183.269 110.542 183.269C111.47 183.269 112.238 183.437 112.846 183.773C113.47 184.093 113.934 184.597 114.238 185.285C114.542 185.973 114.694 186.837 114.694 187.877V195.149H112.75V187.997C112.75 187.277 112.654 186.685 112.462 186.221C112.286 185.757 111.998 185.413 111.598 185.189C111.214 184.965 110.71 184.853 110.086 184.853C109.382 184.853 108.766 185.005 108.238 185.309C107.71 185.613 107.302 186.037 107.014 186.581C106.726 187.125 106.582 187.765 106.582 188.501V195.149H104.638ZM124.203 180.581V178.397H126.603V180.581H124.203ZM124.443 195.149V183.485H126.387V195.149H124.443ZM130.021 195.149V183.485H131.917V186.077H131.653C131.989 185.149 132.533 184.453 133.285 183.989C134.053 183.509 134.933 183.269 135.925 183.269C136.853 183.269 137.621 183.437 138.229 183.773C138.853 184.093 139.317 184.597 139.621 185.285C139.925 185.973 140.077 186.837 140.077 187.877V195.149H138.133V187.997C138.133 187.277 138.037 186.685 137.845 186.221C137.669 185.757 137.381 185.413 136.981 185.189C136.597 184.965 136.093 184.853 135.469 184.853C134.765 184.853 134.149 185.005 133.621 185.309C133.093 185.613 132.685 186.037 132.397 186.581C132.109 187.125 131.965 187.765 131.965 188.501V195.149H130.021ZM148.341 195.365C146.965 195.365 145.933 194.997 145.245 194.261C144.557 193.525 144.213 192.477 144.213 191.117V184.997H141.933V183.485H144.213V179.909H146.157V183.485H149.853V184.997H146.157V190.925C146.157 191.837 146.349 192.533 146.733 193.013C147.117 193.477 147.741 193.709 148.605 193.709C148.861 193.709 149.117 193.677 149.373 193.613C149.629 193.549 149.861 193.485 150.069 193.421L150.405 194.909C150.197 195.021 149.893 195.125 149.493 195.221C149.093 195.317 148.709 195.365 148.341 195.365ZM157.191 195.365C155.959 195.365 154.895 195.125 153.999 194.645C153.119 194.149 152.431 193.453 151.935 192.557C151.455 191.661 151.215 190.589 151.215 189.341C151.215 188.125 151.455 187.069 151.935 186.173C152.415 185.261 153.071 184.549 153.903 184.037C154.751 183.525 155.727 183.269 156.831 183.269C157.887 183.269 158.791 183.501 159.543 183.965C160.295 184.429 160.871 185.085 161.271 185.933C161.687 186.781 161.895 187.797 161.895 188.981V189.725H152.703V188.453H160.599L160.215 188.765C160.215 187.485 159.927 186.493 159.351 185.789C158.791 185.069 157.967 184.709 156.879 184.709C156.063 184.709 155.367 184.901 154.791 185.285C154.231 185.653 153.807 186.173 153.519 186.845C153.231 187.501 153.087 188.269 153.087 189.149V189.293C153.087 190.269 153.239 191.093 153.543 191.765C153.863 192.437 154.335 192.949 154.959 193.301C155.583 193.637 156.327 193.805 157.191 193.805C157.879 193.805 158.543 193.701 159.183 193.493C159.839 193.269 160.455 192.909 161.031 192.413L161.703 193.781C161.175 194.261 160.503 194.645 159.687 194.933C158.871 195.221 158.039 195.365 157.191 195.365ZM164.708 195.149V183.485H166.604V186.245H166.364C166.636 185.301 167.108 184.589 167.78 184.109C168.452 183.613 169.34 183.325 170.444 183.245L171.14 183.173L171.284 184.853L170.06 184.997C168.972 185.093 168.132 185.445 167.54 186.053C166.964 186.645 166.676 187.461 166.676 188.501V195.149H164.708ZM178.425 195.365C177.193 195.365 176.129 195.125 175.233 194.645C174.353 194.149 173.665 193.453 173.169 192.557C172.689 191.661 172.449 190.589 172.449 189.341C172.449 188.125 172.689 187.069 173.169 186.173C173.649 185.261 174.305 184.549 175.137 184.037C175.985 183.525 176.961 183.269 178.065 183.269C179.121 183.269 180.025 183.501 180.777 183.965C181.529 184.429 182.105 185.085 182.505 185.933C182.921 186.781 183.129 187.797 183.129 188.981V189.725H173.937V188.453H181.833L181.449 188.765C181.449 187.485 181.161 186.493 180.585 185.789C180.025 185.069 179.201 184.709 178.113 184.709C177.297 184.709 176.601 184.901 176.025 185.285C175.465 185.653 175.041 186.173 174.753 186.845C174.465 187.501 174.321 188.269 174.321 189.149V189.293C174.321 190.269 174.473 191.093 174.777 191.765C175.097 192.437 175.569 192.949 176.193 193.301C176.817 193.637 177.561 193.805 178.425 193.805C179.113 193.805 179.777 193.701 180.417 193.493C181.073 193.269 181.689 192.909 182.265 192.413L182.937 193.781C182.409 194.261 181.737 194.645 180.921 194.933C180.105 195.221 179.273 195.365 178.425 195.365ZM189.879 195.365C189.271 195.365 188.679 195.301 188.103 195.173C187.543 195.061 187.015 194.901 186.519 194.693C186.039 194.469 185.623 194.205 185.271 193.901L185.895 192.533C186.279 192.837 186.695 193.093 187.143 193.301C187.591 193.493 188.047 193.637 188.511 193.733C188.975 193.829 189.447 193.877 189.927 193.877C190.839 193.877 191.527 193.709 191.991 193.373C192.455 193.037 192.687 192.581 192.687 192.005C192.687 191.557 192.535 191.205 192.231 190.949C191.927 190.677 191.447 190.469 190.791 190.325L188.607 189.845C187.599 189.637 186.847 189.277 186.351 188.765C185.871 188.253 185.631 187.589 185.631 186.773C185.631 186.053 185.815 185.437 186.183 184.925C186.567 184.397 187.103 183.989 187.791 183.701C188.479 183.413 189.279 183.269 190.191 183.269C190.735 183.269 191.255 183.325 191.751 183.437C192.247 183.549 192.711 183.717 193.143 183.941C193.591 184.149 193.975 184.413 194.295 184.733L193.647 186.101C193.343 185.813 192.999 185.573 192.615 185.381C192.231 185.173 191.831 185.021 191.415 184.925C191.015 184.813 190.607 184.757 190.191 184.757C189.295 184.757 188.615 184.933 188.151 185.285C187.687 185.637 187.455 186.101 187.455 186.677C187.455 187.125 187.599 187.493 187.887 187.781C188.175 188.069 188.623 188.277 189.231 188.405L191.415 188.861C192.455 189.085 193.231 189.445 193.743 189.941C194.271 190.421 194.535 191.077 194.535 191.909C194.535 192.613 194.343 193.229 193.959 193.757C193.575 194.269 193.031 194.669 192.327 194.957C191.639 195.229 190.823 195.365 189.879 195.365ZM202.06 195.365C200.684 195.365 199.652 194.997 198.964 194.261C198.276 193.525 197.932 192.477 197.932 191.117V184.997H195.652V183.485H197.932V179.909H199.876V183.485H203.572V184.997H199.876V190.925C199.876 191.837 200.068 192.533 200.452 193.013C200.836 193.477 201.46 193.709 202.324 193.709C202.58 193.709 202.836 193.677 203.092 193.613C203.348 193.549 203.58 193.485 203.788 193.421L204.124 194.909C203.916 195.021 203.612 195.125 203.212 195.221C202.812 195.317 202.428 195.365 202.06 195.365ZM205.531 180.581V178.397H207.931V180.581H205.531ZM205.771 195.149V183.485H207.715V195.149H205.771ZM211.349 195.149V183.485H213.245V186.077H212.981C213.317 185.149 213.861 184.453 214.613 183.989C215.381 183.509 216.261 183.269 217.253 183.269C218.181 183.269 218.949 183.437 219.557 183.773C220.181 184.093 220.645 184.597 220.949 185.285C221.253 185.973 221.405 186.837 221.405 187.877V195.149H219.461V187.997C219.461 187.277 219.365 186.685 219.173 186.221C218.997 185.757 218.709 185.413 218.309 185.189C217.925 184.965 217.421 184.853 216.797 184.853C216.093 184.853 215.477 185.005 214.949 185.309C214.421 185.613 214.013 186.037 213.725 186.581C213.437 187.125 213.293 187.765 213.293 188.501V195.149H211.349ZM230.15 199.685C229.142 199.685 228.19 199.549 227.294 199.277C226.414 199.021 225.63 198.629 224.942 198.101L225.59 196.685C226.07 197.021 226.542 197.293 227.006 197.501C227.486 197.725 227.974 197.885 228.47 197.981C228.982 198.077 229.51 198.125 230.054 198.125C231.19 198.125 232.046 197.821 232.622 197.213C233.214 196.605 233.51 195.725 233.51 194.573V191.861H233.75C233.51 192.789 232.998 193.525 232.214 194.069C231.446 194.613 230.542 194.885 229.502 194.885C228.43 194.885 227.502 194.645 226.718 194.165C225.934 193.669 225.326 192.981 224.894 192.101C224.478 191.221 224.27 190.205 224.27 189.053C224.27 187.901 224.478 186.893 224.894 186.029C225.326 185.149 225.934 184.469 226.718 183.989C227.502 183.509 228.43 183.269 229.502 183.269C230.558 183.269 231.47 183.541 232.238 184.085C233.006 184.613 233.502 185.333 233.726 186.245H233.51V183.485H235.406V194.309C235.406 195.493 235.206 196.485 234.806 197.285C234.422 198.085 233.838 198.685 233.054 199.085C232.27 199.485 231.302 199.685 230.15 199.685ZM229.862 193.301C230.982 193.301 231.87 192.917 232.526 192.149C233.182 191.381 233.51 190.349 233.51 189.053C233.51 187.757 233.182 186.733 232.526 185.981C231.87 185.213 230.982 184.829 229.862 184.829C228.758 184.829 227.878 185.213 227.222 185.981C226.566 186.733 226.238 187.757 226.238 189.053C226.238 190.349 226.566 191.381 227.222 192.149C227.878 192.917 228.758 193.301 229.862 193.301ZM245.216 199.469V183.485H247.112V186.245H246.872C247.128 185.333 247.632 184.613 248.384 184.085C249.152 183.541 250.064 183.269 251.12 183.269C252.16 183.269 253.064 183.517 253.832 184.013C254.616 184.493 255.216 185.189 255.632 186.101C256.064 186.997 256.28 188.069 256.28 189.317C256.28 190.549 256.064 191.621 255.632 192.533C255.216 193.429 254.624 194.125 253.856 194.621C253.088 195.117 252.176 195.365 251.12 195.365C250.064 195.365 249.16 195.101 248.408 194.573C247.656 194.029 247.144 193.309 246.872 192.413H247.16V199.469H245.216ZM250.712 193.805C251.816 193.805 252.688 193.421 253.328 192.653C253.984 191.869 254.312 190.757 254.312 189.317C254.312 187.861 253.984 186.749 253.328 185.981C252.688 185.213 251.816 184.829 250.712 184.829C249.624 184.829 248.752 185.213 248.096 185.981C247.44 186.749 247.112 187.861 247.112 189.317C247.112 190.757 247.44 191.869 248.096 192.653C248.752 193.421 249.624 193.805 250.712 193.805ZM262.784 195.365C261.6 195.365 260.704 195.013 260.096 194.309C259.504 193.605 259.208 192.597 259.208 191.285V178.229H261.152V191.141C261.152 191.701 261.224 192.173 261.368 192.557C261.528 192.941 261.76 193.229 262.064 193.421C262.368 193.613 262.744 193.709 263.192 193.709C263.384 193.709 263.568 193.701 263.744 193.685C263.936 193.653 264.112 193.613 264.272 193.565L264.224 195.197C263.968 195.245 263.72 195.285 263.48 195.317C263.256 195.349 263.024 195.365 262.784 195.365ZM269.982 195.365C269.182 195.365 268.462 195.213 267.822 194.909C267.198 194.589 266.702 194.157 266.334 193.613C265.966 193.069 265.782 192.461 265.782 191.789C265.782 190.925 265.998 190.245 266.43 189.749C266.878 189.253 267.606 188.901 268.614 188.693C269.638 188.485 271.03 188.381 272.79 188.381H273.87V189.653H272.814C271.838 189.653 271.022 189.685 270.366 189.749C269.71 189.813 269.19 189.925 268.806 190.085C268.422 190.245 268.15 190.453 267.99 190.709C267.83 190.965 267.75 191.285 267.75 191.669C267.75 192.325 267.974 192.861 268.422 193.277C268.886 193.693 269.51 193.901 270.294 193.901C270.934 193.901 271.494 193.749 271.974 193.445C272.47 193.141 272.854 192.725 273.126 192.197C273.414 191.669 273.558 191.061 273.558 190.373V187.637C273.558 186.645 273.358 185.933 272.958 185.501C272.558 185.053 271.902 184.829 270.99 184.829C270.286 184.829 269.606 184.933 268.95 185.141C268.294 185.333 267.622 185.653 266.934 186.101L266.262 184.685C266.678 184.397 267.15 184.149 267.678 183.941C268.206 183.717 268.758 183.549 269.334 183.437C269.91 183.325 270.462 183.269 270.99 183.269C271.998 183.269 272.83 183.437 273.486 183.773C274.142 184.093 274.63 184.589 274.95 185.261C275.27 185.917 275.43 186.765 275.43 187.805V195.149H273.606V192.437H273.822C273.694 193.045 273.446 193.565 273.078 193.997C272.726 194.429 272.286 194.765 271.758 195.005C271.23 195.245 270.638 195.365 269.982 195.365ZM283.716 195.365C282.34 195.365 281.308 194.997 280.62 194.261C279.932 193.525 279.588 192.477 279.588 191.117V184.997H277.308V183.485H279.588V179.909H281.532V183.485H285.228V184.997H281.532V190.925C281.532 191.837 281.724 192.533 282.108 193.013C282.492 193.477 283.116 193.709 283.98 193.709C284.236 193.709 284.492 193.677 284.748 193.613C285.004 193.549 285.236 193.485 285.444 193.421L285.78 194.909C285.572 195.021 285.268 195.125 284.868 195.221C284.468 195.317 284.084 195.365 283.716 195.365ZM288.098 195.149V184.997H285.794V183.485H288.626L288.098 183.989V183.077C288.098 181.525 288.482 180.349 289.25 179.549C290.034 178.749 291.234 178.301 292.85 178.205L293.786 178.157L293.954 179.645L292.85 179.717C292.194 179.765 291.658 179.909 291.242 180.149C290.826 180.389 290.522 180.733 290.33 181.181C290.138 181.629 290.042 182.181 290.042 182.837V183.845L289.754 183.485H293.402V184.997H290.042V195.149H288.098ZM299.986 195.365C298.85 195.365 297.866 195.117 297.034 194.621C296.202 194.125 295.554 193.429 295.09 192.533C294.642 191.621 294.418 190.549 294.418 189.317C294.418 188.085 294.642 187.021 295.09 186.125C295.554 185.213 296.202 184.509 297.034 184.013C297.866 183.517 298.85 183.269 299.986 183.269C301.122 183.269 302.106 183.517 302.938 184.013C303.77 184.509 304.41 185.213 304.858 186.125C305.322 187.021 305.554 188.085 305.554 189.317C305.554 190.549 305.322 191.621 304.858 192.533C304.41 193.429 303.77 194.125 302.938 194.621C302.106 195.117 301.122 195.365 299.986 195.365ZM299.986 193.805C301.09 193.805 301.962 193.421 302.602 192.653C303.258 191.869 303.586 190.749 303.586 189.293C303.586 187.853 303.258 186.749 302.602 185.981C301.962 185.213 301.09 184.829 299.986 184.829C298.898 184.829 298.026 185.213 297.37 185.981C296.714 186.749 296.386 187.853 296.386 189.293C296.386 190.749 296.714 191.869 297.37 192.653C298.026 193.421 298.898 193.805 299.986 193.805ZM308.474 195.149V183.485H310.37V186.245H310.13C310.402 185.301 310.874 184.589 311.546 184.109C312.218 183.613 313.106 183.325 314.21 183.245L314.906 183.173L315.05 184.853L313.826 184.997C312.738 185.093 311.898 185.445 311.306 186.053C310.73 186.645 310.442 187.461 310.442 188.501V195.149H308.474ZM317.123 195.149V183.485H319.019V186.077H318.755C318.947 185.485 319.227 184.981 319.595 184.565C319.979 184.133 320.427 183.813 320.939 183.605C321.467 183.381 322.043 183.269 322.667 183.269C323.659 183.269 324.459 183.509 325.067 183.989C325.691 184.453 326.107 185.181 326.315 186.173H325.955C326.243 185.277 326.755 184.573 327.491 184.061C328.243 183.533 329.115 183.269 330.107 183.269C330.987 183.269 331.707 183.437 332.267 183.773C332.843 184.109 333.275 184.621 333.563 185.309C333.851 185.981 333.995 186.837 333.995 187.877V195.149H332.051V187.973C332.051 186.901 331.867 186.117 331.499 185.621C331.131 185.109 330.507 184.853 329.627 184.853C329.003 184.853 328.451 185.005 327.971 185.309C327.507 185.613 327.147 186.045 326.891 186.605C326.651 187.149 326.531 187.797 326.531 188.549V195.149H324.587V187.973C324.587 186.901 324.395 186.117 324.011 185.621C323.643 185.109 323.027 184.853 322.163 184.853C321.523 184.853 320.971 185.005 320.507 185.309C320.043 185.613 319.683 186.045 319.427 186.605C319.187 187.149 319.067 187.797 319.067 188.549V195.149H317.123ZM348.474 195.365C347.098 195.365 346.066 194.997 345.378 194.261C344.69 193.525 344.346 192.477 344.346 191.117V184.997H342.066V183.485H344.346V179.909H346.29V183.485H349.986V184.997H346.29V190.925C346.29 191.837 346.482 192.533 346.866 193.013C347.25 193.477 347.874 193.709 348.738 193.709C348.994 193.709 349.25 193.677 349.506 193.613C349.762 193.549 349.994 193.485 350.202 193.421L350.538 194.909C350.33 195.021 350.026 195.125 349.626 195.221C349.226 195.317 348.842 195.365 348.474 195.365ZM352.185 195.149V178.229H354.129V186.077H353.817C354.153 185.149 354.697 184.453 355.449 183.989C356.217 183.509 357.097 183.269 358.089 183.269C359.017 183.269 359.785 183.437 360.393 183.773C361.017 184.109 361.481 184.621 361.785 185.309C362.089 185.981 362.241 186.837 362.241 187.877V195.149H360.297V187.997C360.297 187.277 360.201 186.685 360.009 186.221C359.833 185.757 359.545 185.413 359.145 185.189C358.761 184.965 358.257 184.853 357.633 184.853C356.929 184.853 356.313 185.005 355.785 185.309C355.257 185.613 354.849 186.037 354.561 186.581C354.273 187.125 354.129 187.765 354.129 188.501V195.149H352.185ZM369.497 195.365C368.697 195.365 367.977 195.213 367.337 194.909C366.713 194.589 366.217 194.157 365.849 193.613C365.481 193.069 365.297 192.461 365.297 191.789C365.297 190.925 365.513 190.245 365.945 189.749C366.393 189.253 367.121 188.901 368.129 188.693C369.153 188.485 370.545 188.381 372.305 188.381H373.385V189.653H372.329C371.353 189.653 370.537 189.685 369.881 189.749C369.225 189.813 368.705 189.925 368.321 190.085C367.937 190.245 367.665 190.453 367.505 190.709C367.345 190.965 367.265 191.285 367.265 191.669C367.265 192.325 367.489 192.861 367.937 193.277C368.401 193.693 369.025 193.901 369.809 193.901C370.449 193.901 371.009 193.749 371.489 193.445C371.985 193.141 372.369 192.725 372.641 192.197C372.929 191.669 373.073 191.061 373.073 190.373V187.637C373.073 186.645 372.873 185.933 372.473 185.501C372.073 185.053 371.417 184.829 370.505 184.829C369.801 184.829 369.121 184.933 368.465 185.141C367.809 185.333 367.137 185.653 366.449 186.101L365.777 184.685C366.193 184.397 366.665 184.149 367.193 183.941C367.721 183.717 368.273 183.549 368.849 183.437C369.425 183.325 369.977 183.269 370.505 183.269C371.513 183.269 372.345 183.437 373.001 183.773C373.657 184.093 374.145 184.589 374.465 185.261C374.785 185.917 374.945 186.765 374.945 187.805V195.149H373.121V192.437H373.337C373.209 193.045 372.961 193.565 372.593 193.997C372.241 194.429 371.801 194.765 371.273 195.005C370.745 195.245 370.153 195.365 369.497 195.365ZM383.232 195.365C381.856 195.365 380.824 194.997 380.136 194.261C379.448 193.525 379.104 192.477 379.104 191.117V184.997H376.824V183.485H379.104V179.909H381.048V183.485H384.744V184.997H381.048V190.925C381.048 191.837 381.24 192.533 381.624 193.013C382.008 193.477 382.632 193.709 383.496 193.709C383.752 193.709 384.008 193.677 384.264 193.613C384.52 193.549 384.752 193.485 384.96 193.421L385.296 194.909C385.088 195.021 384.784 195.125 384.384 195.221C383.984 195.317 383.6 195.365 383.232 195.365ZM396.203 195.149L391.859 183.485H393.899L397.475 193.709H396.899L400.595 183.485H402.251L405.875 193.709H405.323L408.947 183.485H410.891L406.523 195.149H404.675L400.859 184.661H401.891L398.075 195.149H396.203ZM413.046 180.581V178.397H415.446V180.581H413.046ZM413.286 195.149V183.485H415.23V195.149H413.286ZM422.441 195.365C421.257 195.365 420.361 195.013 419.753 194.309C419.161 193.605 418.865 192.597 418.865 191.285V178.229H420.809V191.141C420.809 191.701 420.881 192.173 421.025 192.557C421.185 192.941 421.417 193.229 421.721 193.421C422.025 193.613 422.401 193.709 422.849 193.709C423.041 193.709 423.225 193.701 423.401 193.685C423.593 193.653 423.769 193.613 423.929 193.565L423.881 195.197C423.625 195.245 423.377 195.285 423.137 195.317C422.913 195.349 422.681 195.365 422.441 195.365ZM429.542 195.365C428.358 195.365 427.462 195.013 426.854 194.309C426.262 193.605 425.966 192.597 425.966 191.285V178.229H427.91V191.141C427.91 191.701 427.982 192.173 428.126 192.557C428.286 192.941 428.518 193.229 428.822 193.421C429.126 193.613 429.502 193.709 429.95 193.709C430.142 193.709 430.326 193.701 430.502 193.685C430.694 193.653 430.87 193.613 431.03 193.565L430.982 195.197C430.726 195.245 430.478 195.285 430.238 195.317C430.014 195.349 429.782 195.365 429.542 195.365ZM443.912 195.365C442.536 195.365 441.504 194.997 440.816 194.261C440.128 193.525 439.784 192.477 439.784 191.117V184.997H437.504V183.485H439.784V179.909H441.728V183.485H445.424V184.997H441.728V190.925C441.728 191.837 441.92 192.533 442.304 193.013C442.688 193.477 443.312 193.709 444.176 193.709C444.432 193.709 444.688 193.677 444.944 193.613C445.2 193.549 445.432 193.485 445.64 193.421L445.976 194.909C445.768 195.021 445.464 195.125 445.064 195.221C444.664 195.317 444.28 195.365 443.912 195.365ZM452.761 195.365C451.529 195.365 450.465 195.125 449.569 194.645C448.689 194.149 448.001 193.453 447.505 192.557C447.025 191.661 446.785 190.589 446.785 189.341C446.785 188.125 447.025 187.069 447.505 186.173C447.985 185.261 448.641 184.549 449.473 184.037C450.321 183.525 451.297 183.269 452.401 183.269C453.457 183.269 454.361 183.501 455.113 183.965C455.865 184.429 456.441 185.085 456.841 185.933C457.257 186.781 457.465 187.797 457.465 188.981V189.725H448.273V188.453H456.169L455.785 188.765C455.785 187.485 455.497 186.493 454.921 185.789C454.361 185.069 453.537 184.709 452.449 184.709C451.633 184.709 450.937 184.901 450.361 185.285C449.801 185.653 449.377 186.173 449.089 186.845C448.801 187.501 448.657 188.269 448.657 189.149V189.293C448.657 190.269 448.809 191.093 449.113 191.765C449.433 192.437 449.905 192.949 450.529 193.301C451.153 193.637 451.897 193.805 452.761 193.805C453.449 193.805 454.113 193.701 454.753 193.493C455.409 193.269 456.025 192.909 456.601 192.413L457.273 193.781C456.745 194.261 456.073 194.645 455.257 194.933C454.441 195.221 453.609 195.365 452.761 195.365ZM463.951 195.365C463.151 195.365 462.431 195.213 461.791 194.909C461.167 194.589 460.671 194.157 460.303 193.613C459.935 193.069 459.751 192.461 459.751 191.789C459.751 190.925 459.967 190.245 460.399 189.749C460.847 189.253 461.575 188.901 462.583 188.693C463.607 188.485 464.999 188.381 466.759 188.381H467.839V189.653H466.783C465.807 189.653 464.991 189.685 464.335 189.749C463.679 189.813 463.159 189.925 462.775 190.085C462.391 190.245 462.119 190.453 461.959 190.709C461.799 190.965 461.719 191.285 461.719 191.669C461.719 192.325 461.943 192.861 462.391 193.277C462.855 193.693 463.479 193.901 464.263 193.901C464.903 193.901 465.463 193.749 465.943 193.445C466.439 193.141 466.823 192.725 467.095 192.197C467.383 191.669 467.527 191.061 467.527 190.373V187.637C467.527 186.645 467.327 185.933 466.927 185.501C466.527 185.053 465.871 184.829 464.959 184.829C464.255 184.829 463.575 184.933 462.919 185.141C462.263 185.333 461.591 185.653 460.903 186.101L460.231 184.685C460.647 184.397 461.119 184.149 461.647 183.941C462.175 183.717 462.727 183.549 463.303 183.437C463.879 183.325 464.431 183.269 464.959 183.269C465.967 183.269 466.799 183.437 467.455 183.773C468.111 184.093 468.599 184.589 468.919 185.261C469.239 185.917 469.399 186.765 469.399 187.805V195.149H467.575V192.437H467.791C467.663 193.045 467.415 193.565 467.047 193.997C466.695 194.429 466.255 194.765 465.727 195.005C465.199 195.245 464.607 195.365 463.951 195.365ZM477.949 195.365C476.781 195.365 475.773 195.109 474.925 194.597C474.077 194.085 473.421 193.373 472.957 192.461C472.509 191.533 472.285 190.461 472.285 189.245C472.285 188.013 472.509 186.949 472.957 186.053C473.421 185.157 474.077 184.469 474.925 183.989C475.773 183.509 476.781 183.269 477.949 183.269C478.669 183.269 479.381 183.397 480.085 183.653C480.789 183.909 481.373 184.269 481.837 184.733L481.165 186.149C480.701 185.701 480.189 185.373 479.629 185.165C479.085 184.957 478.565 184.853 478.069 184.853C476.853 184.853 475.917 185.237 475.261 186.005C474.605 186.757 474.277 187.845 474.277 189.269C474.277 190.661 474.605 191.765 475.261 192.581C475.917 193.381 476.853 193.781 478.069 193.781C478.565 193.781 479.085 193.677 479.629 193.469C480.189 193.261 480.701 192.925 481.165 192.461L481.837 193.877C481.373 194.341 480.781 194.709 480.061 194.981C479.357 195.237 478.653 195.365 477.949 195.365ZM484.115 195.149V178.229H486.059V186.077H485.747C486.083 185.149 486.627 184.453 487.379 183.989C488.147 183.509 489.027 183.269 490.019 183.269C490.947 183.269 491.715 183.437 492.323 183.773C492.947 184.109 493.411 184.621 493.715 185.309C494.019 185.981 494.171 186.837 494.171 187.877V195.149H492.227V187.997C492.227 187.277 492.131 186.685 491.939 186.221C491.763 185.757 491.475 185.413 491.075 185.189C490.691 184.965 490.187 184.853 489.563 184.853C488.859 184.853 488.243 185.005 487.715 185.309C487.187 185.613 486.779 186.037 486.491 186.581C486.203 187.125 486.059 187.765 486.059 188.501V195.149H484.115ZM505.263 199.469L507.447 194.549V195.389L502.335 183.485H504.447L508.623 193.709H507.975L512.199 183.485H514.239L507.303 199.469H505.263ZM520.931 195.365C519.795 195.365 518.811 195.117 517.979 194.621C517.147 194.125 516.499 193.429 516.035 192.533C515.587 191.621 515.363 190.549 515.363 189.317C515.363 188.085 515.587 187.021 516.035 186.125C516.499 185.213 517.147 184.509 517.979 184.013C518.811 183.517 519.795 183.269 520.931 183.269C522.067 183.269 523.051 183.517 523.883 184.013C524.715 184.509 525.355 185.213 525.803 186.125C526.267 187.021 526.499 188.085 526.499 189.317C526.499 190.549 526.267 191.621 525.803 192.533C525.355 193.429 524.715 194.125 523.883 194.621C523.051 195.117 522.067 195.365 520.931 195.365ZM520.931 193.805C522.035 193.805 522.907 193.421 523.547 192.653C524.203 191.869 524.531 190.749 524.531 189.293C524.531 187.853 524.203 186.749 523.547 185.981C522.907 185.213 522.035 184.829 520.931 184.829C519.843 184.829 518.971 185.213 518.315 185.981C517.659 186.749 517.331 187.853 517.331 189.293C517.331 190.749 517.659 191.869 518.315 192.653C518.971 193.421 519.843 193.805 520.931 193.805ZM533.547 195.365C532.603 195.365 531.819 195.197 531.195 194.861C530.587 194.509 530.123 193.989 529.803 193.301C529.499 192.613 529.347 191.757 529.347 190.733V183.485H531.291V190.709C531.291 191.397 531.379 191.973 531.555 192.437C531.747 192.885 532.043 193.221 532.443 193.445C532.843 193.653 533.339 193.757 533.931 193.757C534.603 193.757 535.187 193.605 535.683 193.301C536.179 192.997 536.571 192.573 536.859 192.029C537.147 191.485 537.291 190.845 537.291 190.109V183.485H539.235V195.149H537.339V192.461H537.651C537.331 193.405 536.803 194.125 536.067 194.621C535.347 195.117 534.507 195.365 533.547 195.365ZM1.95265 218.581V216.397H4.35265V218.581H1.95265ZM2.19265 233.149V221.485H4.13665V233.149H2.19265ZM7.77078 233.149V221.485H9.66678V224.077H9.40278C9.73878 223.149 10.2828 222.453 11.0348 221.989C11.8028 221.509 12.6828 221.269 13.6748 221.269C14.6028 221.269 15.3708 221.437 15.9788 221.773C16.6028 222.093 17.0668 222.597 17.3708 223.285C17.6748 223.973 17.8268 224.837 17.8268 225.877V233.149H15.8828V225.997C15.8828 225.277 15.7868 224.685 15.5948 224.221C15.4188 223.757 15.1308 223.413 14.7308 223.189C14.3468 222.965 13.8428 222.853 13.2188 222.853C12.5148 222.853 11.8988 223.005 11.3708 223.309C10.8428 223.613 10.4348 224.037 10.1468 224.581C9.85878 225.125 9.71478 225.765 9.71478 226.501V233.149H7.77078ZM27.6235 233.149V221.485H29.5195V224.077H29.2555C29.4475 223.485 29.7275 222.981 30.0955 222.565C30.4795 222.133 30.9275 221.813 31.4395 221.605C31.9675 221.381 32.5435 221.269 33.1675 221.269C34.1595 221.269 34.9595 221.509 35.5675 221.989C36.1915 222.453 36.6075 223.181 36.8155 224.173H36.4555C36.7435 223.277 37.2555 222.573 37.9915 222.061C38.7435 221.533 39.6155 221.269 40.6075 221.269C41.4875 221.269 42.2075 221.437 42.7675 221.773C43.3435 222.109 43.7755 222.621 44.0635 223.309C44.3515 223.981 44.4955 224.837 44.4955 225.877V233.149H42.5515V225.973C42.5515 224.901 42.3675 224.117 41.9995 223.621C41.6315 223.109 41.0075 222.853 40.1275 222.853C39.5035 222.853 38.9515 223.005 38.4715 223.309C38.0075 223.613 37.6475 224.045 37.3915 224.605C37.1515 225.149 37.0315 225.797 37.0315 226.549V233.149H35.0875V225.973C35.0875 224.901 34.8955 224.117 34.5115 223.621C34.1435 223.109 33.5275 222.853 32.6635 222.853C32.0235 222.853 31.4715 223.005 31.0075 223.309C30.5435 223.613 30.1835 224.045 29.9275 224.605C29.6875 225.149 29.5675 225.797 29.5675 226.549V233.149H27.6235ZM52.9782 233.365C51.8422 233.365 50.8582 233.117 50.0262 232.621C49.1942 232.125 48.5462 231.429 48.0822 230.533C47.6342 229.621 47.4102 228.549 47.4102 227.317C47.4102 226.085 47.6342 225.021 48.0822 224.125C48.5462 223.213 49.1942 222.509 50.0262 222.013C50.8582 221.517 51.8422 221.269 52.9782 221.269C54.1142 221.269 55.0982 221.517 55.9302 222.013C56.7622 222.509 57.4022 223.213 57.8502 224.125C58.3142 225.021 58.5462 226.085 58.5462 227.317C58.5462 228.549 58.3142 229.621 57.8502 230.533C57.4022 231.429 56.7622 232.125 55.9302 232.621C55.0982 233.117 54.1142 233.365 52.9782 233.365ZM52.9782 231.805C54.0822 231.805 54.9542 231.421 55.5942 230.653C56.2502 229.869 56.5782 228.749 56.5782 227.293C56.5782 225.853 56.2502 224.749 55.5942 223.981C54.9542 223.213 54.0822 222.829 52.9782 222.829C51.8902 222.829 51.0182 223.213 50.3622 223.981C49.7062 224.749 49.3782 225.853 49.3782 227.293C49.3782 228.749 49.7062 229.869 50.3622 230.653C51.0182 231.421 51.8902 231.805 52.9782 231.805ZM61.4661 233.149V221.485H63.3621V224.245H63.1221C63.3941 223.301 63.8661 222.589 64.5381 222.109C65.2101 221.613 66.0981 221.325 67.2021 221.245L67.8981 221.173L68.0421 222.853L66.8181 222.997C65.7301 223.093 64.8901 223.445 64.2981 224.053C63.7221 224.645 63.4341 225.461 63.4341 226.501V233.149H61.4661ZM75.183 233.365C73.951 233.365 72.887 233.125 71.991 232.645C71.111 232.149 70.423 231.453 69.927 230.557C69.447 229.661 69.207 228.589 69.207 227.341C69.207 226.125 69.447 225.069 69.927 224.173C70.407 223.261 71.063 222.549 71.895 222.037C72.743 221.525 73.719 221.269 74.823 221.269C75.879 221.269 76.783 221.501 77.535 221.965C78.287 222.429 78.863 223.085 79.263 223.933C79.679 224.781 79.887 225.797 79.887 226.981V227.725H70.695V226.453H78.591L78.207 226.765C78.207 225.485 77.919 224.493 77.343 223.789C76.783 223.069 75.959 222.709 74.871 222.709C74.055 222.709 73.359 222.901 72.783 223.285C72.223 223.653 71.799 224.173 71.511 224.845C71.223 225.501 71.079 226.269 71.079 227.149V227.293C71.079 228.269 71.231 229.093 71.535 229.765C71.855 230.437 72.327 230.949 72.951 231.301C73.575 231.637 74.319 231.805 75.183 231.805C75.871 231.805 76.535 231.701 77.175 231.493C77.831 231.269 78.447 230.909 79.023 230.413L79.695 231.781C79.167 232.261 78.495 232.645 77.679 232.933C76.863 233.221 76.031 233.365 75.183 233.365ZM92.5365 233.365C91.7365 233.365 91.0165 233.213 90.3765 232.909C89.7525 232.589 89.2565 232.157 88.8885 231.613C88.5205 231.069 88.3365 230.461 88.3365 229.789C88.3365 228.925 88.5525 228.245 88.9845 227.749C89.4325 227.253 90.1605 226.901 91.1685 226.693C92.1925 226.485 93.5845 226.381 95.3445 226.381H96.4245V227.653H95.3685C94.3925 227.653 93.5765 227.685 92.9205 227.749C92.2645 227.813 91.7445 227.925 91.3605 228.085C90.9765 228.245 90.7045 228.453 90.5445 228.709C90.3845 228.965 90.3045 229.285 90.3045 229.669C90.3045 230.325 90.5285 230.861 90.9765 231.277C91.4405 231.693 92.0645 231.901 92.8485 231.901C93.4885 231.901 94.0485 231.749 94.5285 231.445C95.0245 231.141 95.4085 230.725 95.6805 230.197C95.9685 229.669 96.1125 229.061 96.1125 228.373V225.637C96.1125 224.645 95.9125 223.933 95.5125 223.501C95.1125 223.053 94.4565 222.829 93.5445 222.829C92.8405 222.829 92.1605 222.933 91.5045 223.141C90.8485 223.333 90.1765 223.653 89.4885 224.101L88.8165 222.685C89.2325 222.397 89.7045 222.149 90.2325 221.941C90.7605 221.717 91.3125 221.549 91.8885 221.437C92.4645 221.325 93.0165 221.269 93.5445 221.269C94.5525 221.269 95.3845 221.437 96.0405 221.773C96.6965 222.093 97.1845 222.589 97.5045 223.261C97.8245 223.917 97.9845 224.765 97.9845 225.805V233.149H96.1605V230.437H96.3765C96.2485 231.045 96.0005 231.565 95.6325 231.997C95.2805 232.429 94.8405 232.765 94.3125 233.005C93.7845 233.245 93.1925 233.365 92.5365 233.365ZM101.591 233.149V221.485H103.487V224.077H103.223C103.559 223.149 104.103 222.453 104.855 221.989C105.623 221.509 106.503 221.269 107.495 221.269C108.423 221.269 109.191 221.437 109.799 221.773C110.423 222.093 110.887 222.597 111.191 223.285C111.495 223.973 111.647 224.837 111.647 225.877V233.149H109.703V225.997C109.703 225.277 109.607 224.685 109.415 224.221C109.239 223.757 108.951 223.413 108.551 223.189C108.167 222.965 107.663 222.853 107.039 222.853C106.335 222.853 105.719 223.005 105.191 223.309C104.663 223.613 104.255 224.037 103.967 224.581C103.679 225.125 103.535 225.765 103.535 226.501V233.149H101.591ZM121.156 218.581V216.397H123.556V218.581H121.156ZM121.396 233.149V221.485H123.34V233.149H121.396ZM126.974 233.149V221.485H128.87V224.077H128.606C128.942 223.149 129.486 222.453 130.238 221.989C131.006 221.509 131.886 221.269 132.878 221.269C133.806 221.269 134.574 221.437 135.182 221.773C135.806 222.093 136.27 222.597 136.574 223.285C136.878 223.973 137.03 224.837 137.03 225.877V233.149H135.086V225.997C135.086 225.277 134.99 224.685 134.798 224.221C134.622 223.757 134.334 223.413 133.934 223.189C133.55 222.965 133.046 222.853 132.422 222.853C131.718 222.853 131.102 223.005 130.574 223.309C130.046 223.613 129.638 224.037 129.35 224.581C129.062 225.125 128.918 225.765 128.918 226.501V233.149H126.974ZM145.295 233.365C143.919 233.365 142.887 232.997 142.199 232.261C141.511 231.525 141.167 230.477 141.167 229.117V222.997H138.887V221.485H141.167V217.909H143.111V221.485H146.807V222.997H143.111V228.925C143.111 229.837 143.303 230.533 143.687 231.013C144.071 231.477 144.695 231.709 145.559 231.709C145.815 231.709 146.071 231.677 146.327 231.613C146.583 231.549 146.815 231.485 147.023 231.421L147.359 232.909C147.151 233.021 146.847 233.125 146.447 233.221C146.047 233.317 145.663 233.365 145.295 233.365ZM154.144 233.365C152.912 233.365 151.848 233.125 150.952 232.645C150.072 232.149 149.384 231.453 148.888 230.557C148.408 229.661 148.168 228.589 148.168 227.341C148.168 226.125 148.408 225.069 148.888 224.173C149.368 223.261 150.024 222.549 150.856 222.037C151.704 221.525 152.68 221.269 153.784 221.269C154.84 221.269 155.744 221.501 156.496 221.965C157.248 222.429 157.824 223.085 158.224 223.933C158.64 224.781 158.848 225.797 158.848 226.981V227.725H149.656V226.453H157.552L157.168 226.765C157.168 225.485 156.88 224.493 156.304 223.789C155.744 223.069 154.92 222.709 153.832 222.709C153.016 222.709 152.32 222.901 151.744 223.285C151.184 223.653 150.76 224.173 150.472 224.845C150.184 225.501 150.04 226.269 150.04 227.149V227.293C150.04 228.269 150.192 229.093 150.496 229.765C150.816 230.437 151.288 230.949 151.912 231.301C152.536 231.637 153.28 231.805 154.144 231.805C154.832 231.805 155.496 231.701 156.136 231.493C156.792 231.269 157.408 230.909 157.984 230.413L158.656 231.781C158.128 232.261 157.456 232.645 156.64 232.933C155.824 233.221 154.992 233.365 154.144 233.365ZM161.661 233.149V221.485H163.557V224.245H163.317C163.589 223.301 164.061 222.589 164.733 222.109C165.405 221.613 166.293 221.325 167.397 221.245L168.093 221.173L168.237 222.853L167.013 222.997C165.925 223.093 165.085 223.445 164.493 224.053C163.917 224.645 163.629 225.461 163.629 226.501V233.149H161.661ZM173.818 233.365C173.018 233.365 172.298 233.213 171.658 232.909C171.034 232.589 170.538 232.157 170.17 231.613C169.802 231.069 169.618 230.461 169.618 229.789C169.618 228.925 169.834 228.245 170.266 227.749C170.714 227.253 171.442 226.901 172.45 226.693C173.474 226.485 174.866 226.381 176.626 226.381H177.706V227.653H176.65C175.674 227.653 174.858 227.685 174.202 227.749C173.546 227.813 173.026 227.925 172.642 228.085C172.258 228.245 171.986 228.453 171.826 228.709C171.666 228.965 171.586 229.285 171.586 229.669C171.586 230.325 171.81 230.861 172.258 231.277C172.722 231.693 173.346 231.901 174.13 231.901C174.77 231.901 175.33 231.749 175.81 231.445C176.306 231.141 176.69 230.725 176.962 230.197C177.25 229.669 177.394 229.061 177.394 228.373V225.637C177.394 224.645 177.194 223.933 176.794 223.501C176.394 223.053 175.738 222.829 174.826 222.829C174.122 222.829 173.442 222.933 172.786 223.141C172.13 223.333 171.458 223.653 170.77 224.101L170.098 222.685C170.514 222.397 170.986 222.149 171.514 221.941C172.042 221.717 172.594 221.549 173.17 221.437C173.746 221.325 174.298 221.269 174.826 221.269C175.834 221.269 176.666 221.437 177.322 221.773C177.978 222.093 178.466 222.589 178.786 223.261C179.106 223.917 179.266 224.765 179.266 225.805V233.149H177.442V230.437H177.658C177.53 231.045 177.282 231.565 176.914 231.997C176.562 232.429 176.122 232.765 175.594 233.005C175.066 233.245 174.474 233.365 173.818 233.365ZM187.816 233.365C186.648 233.365 185.64 233.109 184.792 232.597C183.944 232.085 183.288 231.373 182.824 230.461C182.376 229.533 182.152 228.461 182.152 227.245C182.152 226.013 182.376 224.949 182.824 224.053C183.288 223.157 183.944 222.469 184.792 221.989C185.64 221.509 186.648 221.269 187.816 221.269C188.536 221.269 189.248 221.397 189.952 221.653C190.656 221.909 191.24 222.269 191.704 222.733L191.032 224.149C190.568 223.701 190.056 223.373 189.496 223.165C188.952 222.957 188.432 222.853 187.936 222.853C186.72 222.853 185.784 223.237 185.128 224.005C184.472 224.757 184.144 225.845 184.144 227.269C184.144 228.661 184.472 229.765 185.128 230.581C185.784 231.381 186.72 231.781 187.936 231.781C188.432 231.781 188.952 231.677 189.496 231.469C190.056 231.261 190.568 230.925 191.032 230.461L191.704 231.877C191.24 232.341 190.648 232.709 189.928 232.981C189.224 233.237 188.52 233.365 187.816 233.365ZM198.662 233.365C197.286 233.365 196.254 232.997 195.566 232.261C194.878 231.525 194.534 230.477 194.534 229.117V222.997H192.254V221.485H194.534V217.909H196.478V221.485H200.174V222.997H196.478V228.925C196.478 229.837 196.67 230.533 197.054 231.013C197.438 231.477 198.062 231.709 198.926 231.709C199.182 231.709 199.438 231.677 199.694 231.613C199.95 231.549 200.182 231.485 200.39 231.421L200.726 232.909C200.518 233.021 200.214 233.125 199.814 233.221C199.414 233.317 199.03 233.365 198.662 233.365ZM202.132 218.581V216.397H204.532V218.581H202.132ZM202.372 233.149V221.485H204.316V233.149H202.372ZM211.382 233.149L206.366 221.485H208.478L212.654 231.709H212.006L216.254 221.485H218.246L213.206 233.149H211.382ZM225.394 233.365C224.162 233.365 223.098 233.125 222.202 232.645C221.322 232.149 220.634 231.453 220.138 230.557C219.658 229.661 219.418 228.589 219.418 227.341C219.418 226.125 219.658 225.069 220.138 224.173C220.618 223.261 221.274 222.549 222.106 222.037C222.954 221.525 223.93 221.269 225.034 221.269C226.09 221.269 226.994 221.501 227.746 221.965C228.498 222.429 229.074 223.085 229.474 223.933C229.89 224.781 230.098 225.797 230.098 226.981V227.725H220.906V226.453H228.802L228.418 226.765C228.418 225.485 228.13 224.493 227.554 223.789C226.994 223.069 226.17 222.709 225.082 222.709C224.266 222.709 223.57 222.901 222.994 223.285C222.434 223.653 222.01 224.173 221.722 224.845C221.434 225.501 221.29 226.269 221.29 227.149V227.293C221.29 228.269 221.442 229.093 221.746 229.765C222.066 230.437 222.538 230.949 223.162 231.301C223.786 231.637 224.53 231.805 225.394 231.805C226.082 231.805 226.746 231.701 227.386 231.493C228.042 231.269 228.658 230.909 229.234 230.413L229.906 231.781C229.378 232.261 228.706 232.645 227.89 232.933C227.074 233.221 226.242 233.365 225.394 233.365ZM242.171 233.149L237.827 221.485H239.867L243.443 231.709H242.867L246.563 221.485H248.219L251.843 231.709H251.291L254.915 221.485H256.859L252.491 233.149H250.643L246.827 222.661H247.859L244.043 233.149H242.171ZM262.693 233.365C261.893 233.365 261.173 233.213 260.533 232.909C259.909 232.589 259.413 232.157 259.045 231.613C258.677 231.069 258.493 230.461 258.493 229.789C258.493 228.925 258.709 228.245 259.141 227.749C259.589 227.253 260.317 226.901 261.325 226.693C262.349 226.485 263.741 226.381 265.501 226.381H266.581V227.653H265.525C264.549 227.653 263.733 227.685 263.077 227.749C262.421 227.813 261.901 227.925 261.517 228.085C261.133 228.245 260.861 228.453 260.701 228.709C260.541 228.965 260.461 229.285 260.461 229.669C260.461 230.325 260.685 230.861 261.133 231.277C261.597 231.693 262.221 231.901 263.005 231.901C263.645 231.901 264.205 231.749 264.685 231.445C265.181 231.141 265.565 230.725 265.837 230.197C266.125 229.669 266.269 229.061 266.269 228.373V225.637C266.269 224.645 266.069 223.933 265.669 223.501C265.269 223.053 264.613 222.829 263.701 222.829C262.997 222.829 262.317 222.933 261.661 223.141C261.005 223.333 260.333 223.653 259.645 224.101L258.973 222.685C259.389 222.397 259.861 222.149 260.389 221.941C260.917 221.717 261.469 221.549 262.045 221.437C262.621 221.325 263.173 221.269 263.701 221.269C264.709 221.269 265.541 221.437 266.197 221.773C266.853 222.093 267.341 222.589 267.661 223.261C267.981 223.917 268.141 224.765 268.141 225.805V233.149H266.317V230.437H266.533C266.405 231.045 266.157 231.565 265.789 231.997C265.437 232.429 264.997 232.765 264.469 233.005C263.941 233.245 263.349 233.365 262.693 233.365ZM272.974 237.469L275.158 232.549V233.389L270.046 221.485H272.158L276.334 231.709H275.686L279.91 221.485H281.95L275.014 237.469H272.974Z" fill="white"/>
<rect x="0.368652" y="277.596" width="229.896" height="68.4043" rx="34.2022" fill="white" fill-opacity="0.3"/>
<path d="M51.5016 305.655V317.415C51.5016 319.047 51.0296 320.319 50.0856 321.231C49.1416 322.127 47.8776 322.575 46.2936 322.575C44.6936 322.575 43.3976 322.111 42.4056 321.183C41.4296 320.255 40.9416 318.959 40.9416 317.295H44.3016C44.3176 318.015 44.4856 318.575 44.8056 318.975C45.1416 319.375 45.6216 319.575 46.2456 319.575C46.8536 319.575 47.3176 319.383 47.6376 318.999C47.9576 318.615 48.1176 318.087 48.1176 317.415V305.655H51.5016ZM61.3251 322.623C60.0451 322.623 58.8931 322.343 57.8691 321.783C56.8451 321.207 56.0371 320.399 55.4451 319.359C54.8691 318.319 54.5811 317.119 54.5811 315.759C54.5811 314.399 54.8771 313.199 55.4691 312.159C56.0771 311.119 56.9011 310.319 57.9411 309.759C58.9811 309.183 60.1411 308.895 61.4211 308.895C62.7011 308.895 63.8611 309.183 64.9011 309.759C65.9411 310.319 66.7571 311.119 67.3491 312.159C67.9571 313.199 68.2611 314.399 68.2611 315.759C68.2611 317.119 67.9491 318.319 67.3251 319.359C66.7171 320.399 65.8851 321.207 64.8291 321.783C63.7891 322.343 62.6211 322.623 61.3251 322.623ZM61.3251 319.695C61.9331 319.695 62.5011 319.551 63.0291 319.263C63.5731 318.959 64.0051 318.511 64.3251 317.919C64.6451 317.327 64.8051 316.607 64.8051 315.759C64.8051 314.495 64.4691 313.527 63.7971 312.855C63.1411 312.167 62.3331 311.823 61.3731 311.823C60.4131 311.823 59.6051 312.167 58.9491 312.855C58.3091 313.527 57.9891 314.495 57.9891 315.759C57.9891 317.023 58.3011 317.999 58.9251 318.687C59.5651 319.359 60.3651 319.695 61.3251 319.695ZM72.4298 307.527C71.8378 307.527 71.3418 307.343 70.9418 306.975C70.5578 306.591 70.3658 306.119 70.3658 305.559C70.3658 304.999 70.5578 304.535 70.9418 304.167C71.3418 303.783 71.8378 303.591 72.4298 303.591C73.0218 303.591 73.5098 303.783 73.8938 304.167C74.2938 304.535 74.4938 304.999 74.4938 305.559C74.4938 306.119 74.2938 306.591 73.8938 306.975C73.5098 307.343 73.0218 307.527 72.4298 307.527ZM74.0858 309.111V322.407H70.7258V309.111H74.0858ZM84.7735 308.919C86.3575 308.919 87.6375 309.423 88.6135 310.431C89.5895 311.423 90.0775 312.815 90.0775 314.607V322.407H86.7175V315.063C86.7175 314.007 86.4535 313.199 85.9255 312.639C85.3975 312.063 84.6775 311.775 83.7655 311.775C82.8375 311.775 82.1015 312.063 81.5575 312.639C81.0295 313.199 80.7655 314.007 80.7655 315.063V322.407H77.4055V309.111H80.7655V310.767C81.2135 310.191 81.7815 309.743 82.4695 309.423C83.1735 309.087 83.9415 308.919 84.7735 308.919ZM105.087 311.871H102.759V322.407H99.3514V311.871H97.8394V309.111H99.3514V308.439C99.3514 306.807 99.8154 305.607 100.743 304.839C101.671 304.071 103.071 303.711 104.943 303.759V306.591C104.127 306.575 103.559 306.711 103.239 306.999C102.919 307.287 102.759 307.807 102.759 308.559V309.111H105.087V311.871ZM113.169 322.623C111.889 322.623 110.737 322.343 109.713 321.783C108.689 321.207 107.881 320.399 107.289 319.359C106.713 318.319 106.425 317.119 106.425 315.759C106.425 314.399 106.721 313.199 107.313 312.159C107.921 311.119 108.745 310.319 109.785 309.759C110.825 309.183 111.985 308.895 113.265 308.895C114.545 308.895 115.705 309.183 116.745 309.759C117.785 310.319 118.601 311.119 119.193 312.159C119.801 313.199 120.105 314.399 120.105 315.759C120.105 317.119 119.793 318.319 119.169 319.359C118.561 320.399 117.729 321.207 116.673 321.783C115.633 322.343 114.465 322.623 113.169 322.623ZM113.169 319.695C113.777 319.695 114.345 319.551 114.873 319.263C115.417 318.959 115.849 318.511 116.169 317.919C116.489 317.327 116.649 316.607 116.649 315.759C116.649 314.495 116.313 313.527 115.641 312.855C114.985 312.167 114.177 311.823 113.217 311.823C112.257 311.823 111.449 312.167 110.793 312.855C110.153 313.527 109.833 314.495 109.833 315.759C109.833 317.023 110.145 317.999 110.769 318.687C111.409 319.359 112.209 319.695 113.169 319.695ZM125.93 311.175C126.362 310.471 126.922 309.919 127.61 309.519C128.314 309.119 129.114 308.919 130.01 308.919V312.447H129.122C128.066 312.447 127.266 312.695 126.722 313.191C126.194 313.687 125.93 314.551 125.93 315.783V322.407H122.57V309.111H125.93V311.175ZM144.087 311.871H141.759V322.407H138.351V311.871H136.839V309.111H138.351V308.439C138.351 306.807 138.815 305.607 139.743 304.839C140.671 304.071 142.071 303.711 143.943 303.759V306.591C143.127 306.575 142.559 306.711 142.239 306.999C141.919 307.287 141.759 307.807 141.759 308.559V309.111H144.087V311.871ZM149.625 311.175C150.057 310.471 150.617 309.919 151.305 309.519C152.009 309.119 152.809 308.919 153.705 308.919V312.447H152.817C151.761 312.447 150.961 312.695 150.417 313.191C149.889 313.687 149.625 314.551 149.625 315.783V322.407H146.265V309.111H149.625V311.175ZM168.328 315.471C168.328 315.951 168.296 316.383 168.232 316.767H158.512C158.592 317.727 158.928 318.479 159.52 319.023C160.112 319.567 160.84 319.839 161.704 319.839C162.952 319.839 163.84 319.303 164.368 318.231H167.992C167.608 319.511 166.872 320.567 165.784 321.399C164.696 322.215 163.36 322.623 161.776 322.623C160.496 322.623 159.344 322.343 158.32 321.783C157.312 321.207 156.52 320.399 155.944 319.359C155.384 318.319 155.104 317.119 155.104 315.759C155.104 314.383 155.384 313.175 155.944 312.135C156.504 311.095 157.288 310.295 158.296 309.735C159.304 309.175 160.464 308.895 161.776 308.895C163.04 308.895 164.168 309.167 165.16 309.711C166.168 310.255 166.944 311.031 167.488 312.039C168.048 313.031 168.328 314.175 168.328 315.471ZM164.848 314.511C164.832 313.647 164.52 312.959 163.912 312.447C163.304 311.919 162.56 311.655 161.68 311.655C160.848 311.655 160.144 311.911 159.568 312.423C159.008 312.919 158.664 313.615 158.536 314.511H164.848ZM183.141 315.471C183.141 315.951 183.109 316.383 183.045 316.767H173.325C173.405 317.727 173.741 318.479 174.333 319.023C174.925 319.567 175.653 319.839 176.517 319.839C177.765 319.839 178.653 319.303 179.181 318.231H182.805C182.421 319.511 181.685 320.567 180.597 321.399C179.509 322.215 178.173 322.623 176.589 322.623C175.309 322.623 174.157 322.343 173.133 321.783C172.125 321.207 171.333 320.399 170.757 319.359C170.197 318.319 169.917 317.119 169.917 315.759C169.917 314.383 170.197 313.175 170.757 312.135C171.317 311.095 172.101 310.295 173.109 309.735C174.117 309.175 175.277 308.895 176.589 308.895C177.853 308.895 178.981 309.167 179.973 309.711C180.981 310.255 181.757 311.031 182.301 312.039C182.861 313.031 183.141 314.175 183.141 315.471ZM179.661 314.511C179.645 313.647 179.333 312.959 178.725 312.447C178.117 311.919 177.373 311.655 176.493 311.655C175.661 311.655 174.957 311.911 174.381 312.423C173.821 312.919 173.477 313.615 173.349 314.511H179.661Z" fill="white"/>
<path d="M411.973 305.679L407.125 322.407H404.677L400.789 308.943L396.757 322.407L394.333 322.431L389.653 305.679H391.981L395.629 319.863L399.661 305.679H402.109L405.949 319.815L409.621 305.679H411.973ZM413.547 315.783C413.547 314.439 413.819 313.263 414.363 312.255C414.907 311.231 415.651 310.439 416.595 309.879C417.555 309.319 418.619 309.039 419.787 309.039C420.939 309.039 421.939 309.287 422.787 309.783C423.635 310.279 424.267 310.903 424.683 311.655V309.255H426.891V322.407H424.683V319.959C424.251 320.727 423.603 321.367 422.739 321.879C421.891 322.375 420.899 322.623 419.763 322.623C418.595 322.623 417.539 322.335 416.595 321.759C415.651 321.183 414.907 320.375 414.363 319.335C413.819 318.295 413.547 317.111 413.547 315.783ZM424.683 315.807C424.683 314.815 424.483 313.951 424.083 313.215C423.683 312.479 423.139 311.919 422.451 311.535C421.779 311.135 421.035 310.935 420.219 310.935C419.403 310.935 418.659 311.127 417.987 311.511C417.315 311.895 416.779 312.455 416.379 313.191C415.979 313.927 415.779 314.791 415.779 315.783C415.779 316.791 415.979 317.671 416.379 318.423C416.779 319.159 417.315 319.727 417.987 320.127C418.659 320.511 419.403 320.703 420.219 320.703C421.035 320.703 421.779 320.511 422.451 320.127C423.139 319.727 423.683 319.159 424.083 318.423C424.483 317.671 424.683 316.799 424.683 315.807ZM433.245 311.055V318.807C433.245 319.447 433.381 319.903 433.653 320.175C433.925 320.431 434.397 320.559 435.069 320.559H436.677V322.407H434.709C433.493 322.407 432.581 322.127 431.973 321.567C431.365 321.007 431.061 320.087 431.061 318.807V311.055H429.357V309.255H431.061V305.943H433.245V309.255H436.677V311.055H433.245ZM438.508 315.807C438.508 314.447 438.78 313.263 439.324 312.255C439.868 311.231 440.62 310.439 441.58 309.879C442.556 309.319 443.668 309.039 444.916 309.039C446.532 309.039 447.86 309.431 448.9 310.215C449.956 310.999 450.652 312.087 450.988 313.479H448.636C448.412 312.679 447.972 312.047 447.316 311.583C446.676 311.119 445.876 310.887 444.916 310.887C443.668 310.887 442.66 311.319 441.892 312.183C441.124 313.031 440.74 314.239 440.74 315.807C440.74 317.391 441.124 318.615 441.892 319.479C442.66 320.343 443.668 320.775 444.916 320.775C445.876 320.775 446.676 320.551 447.316 320.103C447.956 319.655 448.396 319.015 448.636 318.183H450.988C450.636 319.527 449.932 320.607 448.876 321.423C447.82 322.223 446.5 322.623 444.916 322.623C443.668 322.623 442.556 322.343 441.58 321.783C440.62 321.223 439.868 320.431 439.324 319.407C438.78 318.383 438.508 317.183 438.508 315.807ZM460.43 309.015C461.422 309.015 462.318 309.231 463.118 309.663C463.918 310.079 464.542 310.711 464.99 311.559C465.454 312.407 465.686 313.439 465.686 314.655V322.407H463.526V314.967C463.526 313.655 463.198 312.655 462.542 311.967C461.886 311.263 460.99 310.911 459.854 310.911C458.702 310.911 457.782 311.271 457.094 311.991C456.422 312.711 456.086 313.759 456.086 315.135V322.407H453.902V304.647H456.086V311.127C456.518 310.455 457.11 309.935 457.862 309.567C458.63 309.199 459.486 309.015 460.43 309.015ZM482.18 309.015C483.172 309.015 484.068 309.231 484.868 309.663C485.668 310.079 486.292 310.711 486.74 311.559C487.204 312.407 487.436 313.439 487.436 314.655V322.407H485.276V314.967C485.276 313.655 484.948 312.655 484.292 311.967C483.636 311.263 482.74 310.911 481.604 310.911C480.452 310.911 479.532 311.271 478.844 311.991C478.172 312.711 477.836 313.759 477.836 315.135V322.407H475.652V304.647H477.836V311.127C478.268 310.455 478.86 309.935 479.612 309.567C480.38 309.199 481.236 309.015 482.18 309.015ZM496.739 322.623C495.507 322.623 494.387 322.343 493.379 321.783C492.387 321.223 491.603 320.431 491.027 319.407C490.467 318.367 490.187 317.167 490.187 315.807C490.187 314.463 490.475 313.279 491.051 312.255C491.643 311.215 492.443 310.423 493.451 309.879C494.459 309.319 495.587 309.039 496.835 309.039C498.083 309.039 499.211 309.319 500.219 309.879C501.227 310.423 502.019 311.207 502.595 312.231C503.187 313.255 503.483 314.447 503.483 315.807C503.483 317.167 503.179 318.367 502.571 319.407C501.979 320.431 501.171 321.223 500.147 321.783C499.123 322.343 497.987 322.623 496.739 322.623ZM496.739 320.703C497.523 320.703 498.259 320.519 498.947 320.151C499.635 319.783 500.187 319.231 500.603 318.495C501.035 317.759 501.251 316.863 501.251 315.807C501.251 314.751 501.043 313.855 500.627 313.119C500.211 312.383 499.667 311.839 498.995 311.487C498.323 311.119 497.595 310.935 496.811 310.935C496.011 310.935 495.275 311.119 494.603 311.487C493.947 311.839 493.419 312.383 493.019 313.119C492.619 313.855 492.419 314.751 492.419 315.807C492.419 316.879 492.611 317.783 492.995 318.519C493.395 319.255 493.923 319.807 494.579 320.175C495.235 320.527 495.955 320.703 496.739 320.703ZM523.875 309.255L519.771 322.407H517.515L514.347 311.967L511.179 322.407H508.923L504.795 309.255H507.027L510.051 320.295L513.315 309.255H515.547L518.739 320.319L521.715 309.255H523.875ZM533.569 307.119C533.153 307.119 532.801 306.975 532.513 306.687C532.225 306.399 532.081 306.047 532.081 305.631C532.081 305.215 532.225 304.863 532.513 304.575C532.801 304.287 533.153 304.143 533.569 304.143C533.969 304.143 534.305 304.287 534.577 304.575C534.865 304.863 535.009 305.215 535.009 305.631C535.009 306.047 534.865 306.399 534.577 306.687C534.305 306.975 533.969 307.119 533.569 307.119ZM534.625 309.255V322.407H532.441V309.255H534.625ZM541.011 311.055V318.807C541.011 319.447 541.147 319.903 541.419 320.175C541.691 320.431 542.163 320.559 542.835 320.559H544.443V322.407H542.475C541.259 322.407 540.347 322.127 539.739 321.567C539.131 321.007 538.827 320.087 538.827 318.807V311.055H537.123V309.255H538.827V305.943H541.011V309.255H544.443V311.055H541.011ZM571.008 309.255L566.904 322.407H564.648L561.48 311.967L558.312 322.407H556.056L551.928 309.255H554.16L557.184 320.295L560.448 309.255H562.68L565.872 320.319L568.848 309.255H571.008ZM578.911 322.623C577.679 322.623 576.559 322.343 575.551 321.783C574.559 321.223 573.775 320.431 573.199 319.407C572.639 318.367 572.359 317.167 572.359 315.807C572.359 314.463 572.647 313.279 573.223 312.255C573.815 311.215 574.615 310.423 575.623 309.879C576.631 309.319 577.759 309.039 579.007 309.039C580.255 309.039 581.383 309.319 582.391 309.879C583.399 310.423 584.191 311.207 584.767 312.231C585.359 313.255 585.655 314.447 585.655 315.807C585.655 317.167 585.351 318.367 584.743 319.407C584.151 320.431 583.343 321.223 582.319 321.783C581.295 322.343 580.159 322.623 578.911 322.623ZM578.911 320.703C579.695 320.703 580.431 320.519 581.119 320.151C581.807 319.783 582.359 319.231 582.775 318.495C583.207 317.759 583.423 316.863 583.423 315.807C583.423 314.751 583.215 313.855 582.799 313.119C582.383 312.383 581.839 311.839 581.167 311.487C580.495 311.119 579.767 310.935 578.983 310.935C578.183 310.935 577.447 311.119 576.775 311.487C576.119 311.839 575.591 312.383 575.191 313.119C574.791 313.855 574.591 314.751 574.591 315.807C574.591 316.879 574.783 317.783 575.167 318.519C575.567 319.255 576.095 319.807 576.751 320.175C577.407 320.527 578.127 320.703 578.911 320.703ZM590.711 311.391C591.095 310.639 591.639 310.055 592.343 309.639C593.063 309.223 593.935 309.015 594.959 309.015V311.271H594.383C591.935 311.271 590.711 312.599 590.711 315.255V322.407H588.527V309.255H590.711V311.391ZM604.824 322.407L599.664 316.599V322.407H597.48V304.647H599.664V315.087L604.728 309.255H607.776L601.584 315.807L607.8 322.407H604.824ZM614.487 322.623C613.479 322.623 612.575 322.455 611.775 322.119C610.975 321.767 610.343 321.287 609.879 320.679C609.415 320.055 609.159 319.343 609.111 318.543H611.367C611.431 319.199 611.735 319.735 612.279 320.151C612.839 320.567 613.567 320.775 614.463 320.775C615.295 320.775 615.951 320.591 616.431 320.223C616.911 319.855 617.151 319.391 617.151 318.831C617.151 318.255 616.895 317.831 616.383 317.559C615.871 317.271 615.079 316.991 614.007 316.719C613.031 316.463 612.231 316.207 611.607 315.951C610.999 315.679 610.471 315.287 610.023 314.775C609.591 314.247 609.375 313.559 609.375 312.711C609.375 312.039 609.575 311.423 609.975 310.863C610.375 310.303 610.943 309.863 611.679 309.543C612.415 309.207 613.255 309.039 614.199 309.039C615.655 309.039 616.831 309.407 617.727 310.143C618.623 310.879 619.103 311.887 619.167 313.167H616.983C616.935 312.479 616.655 311.927 616.143 311.511C615.647 311.095 614.975 310.887 614.127 310.887C613.343 310.887 612.719 311.055 612.255 311.391C611.791 311.727 611.559 312.167 611.559 312.711C611.559 313.143 611.695 313.503 611.967 313.791C612.255 314.063 612.607 314.287 613.023 314.463C613.455 314.623 614.047 314.807 614.799 315.015C615.743 315.271 616.511 315.527 617.103 315.783C617.695 316.023 618.199 316.391 618.615 316.887C619.047 317.383 619.271 318.031 619.287 318.831C619.287 319.551 619.087 320.199 618.687 320.775C618.287 321.351 617.719 321.807 616.983 322.143C616.263 322.463 615.431 322.623 614.487 322.623Z" fill="#252641"/>
<g filter="url(#filter0_d_1_239)">
<ellipse cx="313.862" cy="311.798" rx="41.7992" ry="34.2022" fill="white"/>
</g>
<path d="M328.759 311.471C329.504 311.837 329.504 312.899 328.759 313.265L306.945 324C306.28 324.327 305.503 323.844 305.503 323.103L305.503 301.633C305.503 300.892 306.28 300.409 306.945 300.736L328.759 311.471Z" fill="#23BDEE"/>
<defs>
<filter id="filter0_d_1_239" x="214.063" y="237.596" width="203.599" height="188.404" filterUnits="userSpaceOnUse" color-interpolation-filters="sRGB">
<feFlood flood-opacity="0" result="BackgroundImageFix"/>
<feColorMatrix in="SourceAlpha" type="matrix" values="0 0 0 0 0 0 0 0 0 0 0 0 0 0 0 0 0 0 127 0" result="hardAlpha"/>
<feOffset dx="2" dy="20"/>
<feGaussianBlur stdDeviation="30"/>
<feColorMatrix type="matrix" values="0 0 0 0 0.239854 0 0 0 0 0.607896 0 0 0 0 0.725 0 0 0 0.1 0"/>
<feBlend mode="normal" in2="BackgroundImageFix" result="effect1_dropShadow_1_239"/>
<feBlend mode="normal" in="SourceGraphic" in2="effect1_dropShadow_1_239" result="shape"/>
</filter>
</defs>
</svg>
